G75*
G70*
%OFA0B0*%
%FSLAX24Y24*%
%IPPOS*%
%LPD*%
%AMOC8*
5,1,8,0,0,1.08239X$1,22.5*
%
%ADD10C,0.0000*%
%ADD11C,0.0030*%
%ADD12C,0.0120*%
%ADD13C,0.0080*%
%ADD14C,0.0040*%
%ADD15C,0.0060*%
%ADD16C,0.0020*%
D10*
X000536Y001785D02*
X000534Y001719D01*
X000536Y001653D01*
X000542Y001587D01*
X000551Y001521D01*
X000564Y001456D01*
X000581Y001391D01*
X000601Y001328D01*
X000625Y001266D01*
X000652Y001206D01*
X000683Y001147D01*
X000717Y001089D01*
X000754Y001034D01*
X000794Y000981D01*
X000837Y000931D01*
X000882Y000882D01*
X000931Y000837D01*
X000981Y000794D01*
X001034Y000754D01*
X001089Y000717D01*
X001147Y000683D01*
X001206Y000652D01*
X001266Y000625D01*
X001328Y000601D01*
X001391Y000581D01*
X001456Y000564D01*
X001521Y000551D01*
X001587Y000542D01*
X001653Y000536D01*
X001719Y000534D01*
X001785Y000536D01*
X001785Y000535D02*
X008535Y000535D01*
X008603Y000537D01*
X008670Y000542D01*
X008737Y000551D01*
X008804Y000564D01*
X008869Y000581D01*
X008934Y000600D01*
X008998Y000624D01*
X009060Y000651D01*
X009121Y000681D01*
X009179Y000714D01*
X009236Y000750D01*
X009291Y000790D01*
X009344Y000832D01*
X009395Y000878D01*
X009442Y000925D01*
X009488Y000976D01*
X009530Y001029D01*
X009570Y001084D01*
X009606Y001141D01*
X009639Y001199D01*
X009669Y001260D01*
X009696Y001322D01*
X009720Y001386D01*
X009739Y001451D01*
X009756Y001516D01*
X009769Y001583D01*
X009778Y001650D01*
X009783Y001717D01*
X009785Y001785D01*
X009785Y008535D01*
X009783Y008603D01*
X009778Y008670D01*
X009769Y008737D01*
X009756Y008804D01*
X009739Y008869D01*
X009720Y008934D01*
X009696Y008998D01*
X009669Y009060D01*
X009639Y009121D01*
X009606Y009179D01*
X009570Y009236D01*
X009530Y009291D01*
X009488Y009344D01*
X009442Y009395D01*
X009395Y009442D01*
X009344Y009488D01*
X009291Y009530D01*
X009236Y009570D01*
X009179Y009606D01*
X009121Y009639D01*
X009060Y009669D01*
X008998Y009696D01*
X008934Y009720D01*
X008869Y009739D01*
X008804Y009756D01*
X008737Y009769D01*
X008670Y009778D01*
X008603Y009783D01*
X008535Y009785D01*
X001785Y009785D01*
X001160Y008535D02*
X001162Y008585D01*
X001168Y008634D01*
X001178Y008683D01*
X001191Y008730D01*
X001209Y008777D01*
X001230Y008822D01*
X001254Y008865D01*
X001282Y008906D01*
X001313Y008945D01*
X001347Y008981D01*
X001384Y009015D01*
X001424Y009045D01*
X001465Y009072D01*
X001509Y009096D01*
X001554Y009116D01*
X001601Y009132D01*
X001649Y009145D01*
X001698Y009154D01*
X001748Y009159D01*
X001797Y009160D01*
X001847Y009157D01*
X001896Y009150D01*
X001945Y009139D01*
X001992Y009125D01*
X002038Y009106D01*
X002083Y009084D01*
X002126Y009059D01*
X002166Y009030D01*
X002204Y008998D01*
X002240Y008964D01*
X002273Y008926D01*
X002302Y008886D01*
X002328Y008844D01*
X002351Y008800D01*
X002370Y008754D01*
X002386Y008707D01*
X002398Y008658D01*
X002406Y008609D01*
X002410Y008560D01*
X002410Y008510D01*
X002406Y008461D01*
X002398Y008412D01*
X002386Y008363D01*
X002370Y008316D01*
X002351Y008270D01*
X002328Y008226D01*
X002302Y008184D01*
X002273Y008144D01*
X002240Y008106D01*
X002204Y008072D01*
X002166Y008040D01*
X002126Y008011D01*
X002083Y007986D01*
X002038Y007964D01*
X001992Y007945D01*
X001945Y007931D01*
X001896Y007920D01*
X001847Y007913D01*
X001797Y007910D01*
X001748Y007911D01*
X001698Y007916D01*
X001649Y007925D01*
X001601Y007938D01*
X001554Y007954D01*
X001509Y007974D01*
X001465Y007998D01*
X001424Y008025D01*
X001384Y008055D01*
X001347Y008089D01*
X001313Y008125D01*
X001282Y008164D01*
X001254Y008205D01*
X001230Y008248D01*
X001209Y008293D01*
X001191Y008340D01*
X001178Y008387D01*
X001168Y008436D01*
X001162Y008485D01*
X001160Y008535D01*
X000535Y008535D02*
X000535Y001785D01*
X001160Y001785D02*
X001162Y001835D01*
X001168Y001884D01*
X001178Y001933D01*
X001191Y001980D01*
X001209Y002027D01*
X001230Y002072D01*
X001254Y002115D01*
X001282Y002156D01*
X001313Y002195D01*
X001347Y002231D01*
X001384Y002265D01*
X001424Y002295D01*
X001465Y002322D01*
X001509Y002346D01*
X001554Y002366D01*
X001601Y002382D01*
X001649Y002395D01*
X001698Y002404D01*
X001748Y002409D01*
X001797Y002410D01*
X001847Y002407D01*
X001896Y002400D01*
X001945Y002389D01*
X001992Y002375D01*
X002038Y002356D01*
X002083Y002334D01*
X002126Y002309D01*
X002166Y002280D01*
X002204Y002248D01*
X002240Y002214D01*
X002273Y002176D01*
X002302Y002136D01*
X002328Y002094D01*
X002351Y002050D01*
X002370Y002004D01*
X002386Y001957D01*
X002398Y001908D01*
X002406Y001859D01*
X002410Y001810D01*
X002410Y001760D01*
X002406Y001711D01*
X002398Y001662D01*
X002386Y001613D01*
X002370Y001566D01*
X002351Y001520D01*
X002328Y001476D01*
X002302Y001434D01*
X002273Y001394D01*
X002240Y001356D01*
X002204Y001322D01*
X002166Y001290D01*
X002126Y001261D01*
X002083Y001236D01*
X002038Y001214D01*
X001992Y001195D01*
X001945Y001181D01*
X001896Y001170D01*
X001847Y001163D01*
X001797Y001160D01*
X001748Y001161D01*
X001698Y001166D01*
X001649Y001175D01*
X001601Y001188D01*
X001554Y001204D01*
X001509Y001224D01*
X001465Y001248D01*
X001424Y001275D01*
X001384Y001305D01*
X001347Y001339D01*
X001313Y001375D01*
X001282Y001414D01*
X001254Y001455D01*
X001230Y001498D01*
X001209Y001543D01*
X001191Y001590D01*
X001178Y001637D01*
X001168Y001686D01*
X001162Y001735D01*
X001160Y001785D01*
X000535Y008535D02*
X000537Y008603D01*
X000542Y008670D01*
X000551Y008737D01*
X000564Y008804D01*
X000581Y008869D01*
X000600Y008934D01*
X000624Y008998D01*
X000651Y009060D01*
X000681Y009121D01*
X000714Y009179D01*
X000750Y009236D01*
X000790Y009291D01*
X000832Y009344D01*
X000878Y009395D01*
X000925Y009442D01*
X000976Y009488D01*
X001029Y009530D01*
X001084Y009570D01*
X001141Y009606D01*
X001199Y009639D01*
X001260Y009669D01*
X001322Y009696D01*
X001386Y009720D01*
X001451Y009739D01*
X001516Y009756D01*
X001583Y009769D01*
X001650Y009778D01*
X001717Y009783D01*
X001785Y009785D01*
X007910Y008535D02*
X007912Y008585D01*
X007918Y008634D01*
X007928Y008683D01*
X007941Y008730D01*
X007959Y008777D01*
X007980Y008822D01*
X008004Y008865D01*
X008032Y008906D01*
X008063Y008945D01*
X008097Y008981D01*
X008134Y009015D01*
X008174Y009045D01*
X008215Y009072D01*
X008259Y009096D01*
X008304Y009116D01*
X008351Y009132D01*
X008399Y009145D01*
X008448Y009154D01*
X008498Y009159D01*
X008547Y009160D01*
X008597Y009157D01*
X008646Y009150D01*
X008695Y009139D01*
X008742Y009125D01*
X008788Y009106D01*
X008833Y009084D01*
X008876Y009059D01*
X008916Y009030D01*
X008954Y008998D01*
X008990Y008964D01*
X009023Y008926D01*
X009052Y008886D01*
X009078Y008844D01*
X009101Y008800D01*
X009120Y008754D01*
X009136Y008707D01*
X009148Y008658D01*
X009156Y008609D01*
X009160Y008560D01*
X009160Y008510D01*
X009156Y008461D01*
X009148Y008412D01*
X009136Y008363D01*
X009120Y008316D01*
X009101Y008270D01*
X009078Y008226D01*
X009052Y008184D01*
X009023Y008144D01*
X008990Y008106D01*
X008954Y008072D01*
X008916Y008040D01*
X008876Y008011D01*
X008833Y007986D01*
X008788Y007964D01*
X008742Y007945D01*
X008695Y007931D01*
X008646Y007920D01*
X008597Y007913D01*
X008547Y007910D01*
X008498Y007911D01*
X008448Y007916D01*
X008399Y007925D01*
X008351Y007938D01*
X008304Y007954D01*
X008259Y007974D01*
X008215Y007998D01*
X008174Y008025D01*
X008134Y008055D01*
X008097Y008089D01*
X008063Y008125D01*
X008032Y008164D01*
X008004Y008205D01*
X007980Y008248D01*
X007959Y008293D01*
X007941Y008340D01*
X007928Y008387D01*
X007918Y008436D01*
X007912Y008485D01*
X007910Y008535D01*
X007910Y001785D02*
X007912Y001835D01*
X007918Y001884D01*
X007928Y001933D01*
X007941Y001980D01*
X007959Y002027D01*
X007980Y002072D01*
X008004Y002115D01*
X008032Y002156D01*
X008063Y002195D01*
X008097Y002231D01*
X008134Y002265D01*
X008174Y002295D01*
X008215Y002322D01*
X008259Y002346D01*
X008304Y002366D01*
X008351Y002382D01*
X008399Y002395D01*
X008448Y002404D01*
X008498Y002409D01*
X008547Y002410D01*
X008597Y002407D01*
X008646Y002400D01*
X008695Y002389D01*
X008742Y002375D01*
X008788Y002356D01*
X008833Y002334D01*
X008876Y002309D01*
X008916Y002280D01*
X008954Y002248D01*
X008990Y002214D01*
X009023Y002176D01*
X009052Y002136D01*
X009078Y002094D01*
X009101Y002050D01*
X009120Y002004D01*
X009136Y001957D01*
X009148Y001908D01*
X009156Y001859D01*
X009160Y001810D01*
X009160Y001760D01*
X009156Y001711D01*
X009148Y001662D01*
X009136Y001613D01*
X009120Y001566D01*
X009101Y001520D01*
X009078Y001476D01*
X009052Y001434D01*
X009023Y001394D01*
X008990Y001356D01*
X008954Y001322D01*
X008916Y001290D01*
X008876Y001261D01*
X008833Y001236D01*
X008788Y001214D01*
X008742Y001195D01*
X008695Y001181D01*
X008646Y001170D01*
X008597Y001163D01*
X008547Y001160D01*
X008498Y001161D01*
X008448Y001166D01*
X008399Y001175D01*
X008351Y001188D01*
X008304Y001204D01*
X008259Y001224D01*
X008215Y001248D01*
X008174Y001275D01*
X008134Y001305D01*
X008097Y001339D01*
X008063Y001375D01*
X008032Y001414D01*
X008004Y001455D01*
X007980Y001498D01*
X007959Y001543D01*
X007941Y001590D01*
X007928Y001637D01*
X007918Y001686D01*
X007912Y001735D01*
X007910Y001785D01*
D11*
X007367Y001145D02*
X007243Y001145D01*
X007182Y001084D01*
X007182Y001022D01*
X007243Y000960D01*
X007367Y000960D01*
X007429Y000898D01*
X007429Y000837D01*
X007367Y000775D01*
X007243Y000775D01*
X007182Y000837D01*
X007060Y000837D02*
X007060Y001145D01*
X006813Y001145D02*
X006813Y000837D01*
X006875Y000775D01*
X006999Y000775D01*
X007060Y000837D01*
X007367Y001145D02*
X007429Y001084D01*
X006692Y001084D02*
X006692Y001022D01*
X006630Y000960D01*
X006445Y000960D01*
X006445Y000775D02*
X006630Y000775D01*
X006692Y000837D01*
X006692Y000898D01*
X006630Y000960D01*
X006692Y001084D02*
X006630Y001145D01*
X006445Y001145D01*
X006445Y000775D01*
X005955Y000775D02*
X005708Y000775D01*
X005708Y001145D01*
X005955Y001145D01*
X005832Y000960D02*
X005708Y000960D01*
X005587Y000960D02*
X005587Y001084D01*
X005525Y001145D01*
X005340Y001145D01*
X005340Y000775D01*
X005218Y000775D02*
X005095Y000775D01*
X005156Y000775D02*
X005156Y001145D01*
X005095Y001145D02*
X005218Y001145D01*
X004973Y001145D02*
X004973Y000775D01*
X004850Y000898D01*
X004726Y000775D01*
X004726Y001145D01*
X004605Y001145D02*
X004358Y001145D01*
X004358Y000775D01*
X004605Y000775D01*
X004481Y000960D02*
X004358Y000960D01*
X004237Y000775D02*
X004237Y001145D01*
X003990Y001145D02*
X004237Y000775D01*
X003990Y000775D02*
X003990Y001145D01*
X003868Y001084D02*
X003806Y001145D01*
X003683Y001145D01*
X003621Y001084D01*
X003621Y000837D01*
X003683Y000775D01*
X003806Y000775D01*
X003868Y000837D01*
X003868Y001084D01*
X004586Y002425D02*
X004833Y002425D01*
X004895Y002487D01*
X004895Y002610D01*
X004833Y002672D01*
X004710Y002672D01*
X004710Y002548D01*
X004586Y002425D02*
X004525Y002487D01*
X004525Y002610D01*
X004586Y002672D01*
X004525Y002793D02*
X004895Y003040D01*
X004525Y003040D01*
X004525Y003162D02*
X004525Y003347D01*
X004586Y003409D01*
X004833Y003409D01*
X004895Y003347D01*
X004895Y003162D01*
X004525Y003162D01*
X004525Y002793D02*
X004895Y002793D01*
X005525Y002855D02*
X005525Y002978D01*
X005586Y003040D01*
X005833Y003040D01*
X005895Y002978D01*
X005895Y002855D01*
X005833Y002793D01*
X005586Y002793D01*
X005525Y002855D01*
X005586Y002672D02*
X005525Y002610D01*
X005525Y002425D01*
X005895Y002425D01*
X005895Y002610D01*
X005833Y002672D01*
X005586Y002672D01*
X005772Y002917D02*
X005895Y003040D01*
X006525Y002978D02*
X006525Y002855D01*
X006586Y002793D01*
X006833Y002793D01*
X006895Y002855D01*
X006895Y002978D01*
X006833Y003040D01*
X006833Y003162D02*
X006895Y003223D01*
X006895Y003347D01*
X006833Y003409D01*
X006945Y003462D02*
X007007Y003400D01*
X007130Y003400D01*
X007192Y003462D01*
X007192Y003523D01*
X007130Y003585D01*
X007007Y003585D01*
X006945Y003647D01*
X006945Y003709D01*
X007007Y003770D01*
X007130Y003770D01*
X007192Y003709D01*
X007313Y003770D02*
X007499Y003770D01*
X007560Y003709D01*
X007560Y003462D01*
X007499Y003400D01*
X007313Y003400D01*
X007313Y003770D01*
X007682Y003647D02*
X007682Y003400D01*
X007682Y003585D02*
X007929Y003585D01*
X007929Y003647D02*
X007929Y003400D01*
X007929Y003647D02*
X007805Y003770D01*
X007682Y003647D01*
X007682Y004400D02*
X007929Y004400D01*
X007682Y004400D02*
X007682Y004770D01*
X007560Y004709D02*
X007499Y004770D01*
X007375Y004770D01*
X007313Y004709D01*
X007313Y004462D01*
X007375Y004400D01*
X007499Y004400D01*
X007560Y004462D01*
X007192Y004462D02*
X007130Y004400D01*
X007007Y004400D01*
X006945Y004462D01*
X007007Y004585D02*
X007130Y004585D01*
X007192Y004523D01*
X007192Y004462D01*
X007007Y004585D02*
X006945Y004647D01*
X006945Y004709D01*
X007007Y004770D01*
X007130Y004770D01*
X007192Y004709D01*
X007068Y005400D02*
X007192Y005523D01*
X007192Y005770D01*
X007313Y005709D02*
X007313Y005462D01*
X007375Y005400D01*
X007499Y005400D01*
X007560Y005462D01*
X007682Y005462D02*
X007743Y005400D01*
X007867Y005400D01*
X007929Y005462D01*
X007682Y005462D02*
X007682Y005709D01*
X007743Y005770D01*
X007867Y005770D01*
X007929Y005709D01*
X007560Y005709D02*
X007499Y005770D01*
X007375Y005770D01*
X007313Y005709D01*
X006945Y005770D02*
X006945Y005523D01*
X007068Y005400D01*
X007007Y006400D02*
X007130Y006400D01*
X007192Y006462D01*
X007192Y006585D01*
X007068Y006585D01*
X006945Y006462D02*
X007007Y006400D01*
X006945Y006462D02*
X006945Y006709D01*
X007007Y006770D01*
X007130Y006770D01*
X007192Y006709D01*
X007313Y006770D02*
X007560Y006400D01*
X007560Y006770D01*
X007682Y006770D02*
X007867Y006770D01*
X007929Y006709D01*
X007929Y006462D01*
X007867Y006400D01*
X007682Y006400D01*
X007682Y006770D01*
X007313Y006770D02*
X007313Y006400D01*
X007110Y007800D02*
X006987Y007800D01*
X006925Y007862D01*
X007172Y008109D01*
X007172Y007862D01*
X007110Y007800D01*
X006925Y007862D02*
X006925Y008109D01*
X006987Y008170D01*
X007110Y008170D01*
X007172Y008109D01*
X007172Y008925D02*
X006925Y008925D01*
X007048Y008925D02*
X007048Y009295D01*
X006925Y009172D01*
X004672Y008925D02*
X004425Y008925D01*
X004548Y008925D02*
X004548Y009295D01*
X004425Y009172D01*
X004487Y008170D02*
X004610Y008170D01*
X004672Y008109D01*
X004425Y007862D01*
X004487Y007800D01*
X004610Y007800D01*
X004672Y007862D01*
X004672Y008109D01*
X004487Y008170D02*
X004425Y008109D01*
X004425Y007862D01*
X001145Y006925D02*
X001145Y006802D01*
X001083Y006740D01*
X000836Y006987D01*
X001083Y006987D01*
X001145Y006925D01*
X001083Y006740D02*
X000836Y006740D01*
X000775Y006802D01*
X000775Y006925D01*
X000836Y006987D01*
X000836Y006618D02*
X001083Y006372D01*
X001145Y006433D01*
X001145Y006557D01*
X001083Y006618D01*
X000836Y006618D01*
X000775Y006557D01*
X000775Y006433D01*
X000836Y006372D01*
X001083Y006372D01*
X001145Y006250D02*
X001145Y006003D01*
X001145Y006127D02*
X000775Y006127D01*
X000898Y006003D01*
X000960Y005882D02*
X000960Y005635D01*
X000898Y005513D02*
X000836Y005513D01*
X000775Y005452D01*
X000775Y005328D01*
X000836Y005267D01*
X000836Y005145D02*
X000775Y005083D01*
X000775Y004960D01*
X000836Y004898D01*
X000898Y004898D01*
X000960Y004960D01*
X000960Y005083D01*
X001022Y005145D01*
X001083Y005145D01*
X001145Y005083D01*
X001145Y004960D01*
X001083Y004898D01*
X001022Y004898D01*
X000960Y004960D01*
X000960Y005083D02*
X000898Y005145D01*
X000836Y005145D01*
X001145Y005267D02*
X000898Y005513D01*
X001145Y005513D02*
X001145Y005267D01*
X000960Y004777D02*
X000960Y004530D01*
X000775Y004715D01*
X001145Y004715D01*
X001145Y004409D02*
X001145Y004162D01*
X000898Y004409D01*
X000836Y004409D01*
X000775Y004347D01*
X000775Y004223D01*
X000836Y004162D01*
X000836Y004040D02*
X000775Y003978D01*
X000775Y003855D01*
X000836Y003793D01*
X000898Y003793D01*
X000960Y003855D01*
X000960Y003978D01*
X001022Y004040D01*
X001083Y004040D01*
X001145Y003978D01*
X001145Y003855D01*
X001083Y003793D01*
X001083Y003672D02*
X000836Y003672D01*
X000775Y003610D01*
X000775Y003425D01*
X001145Y003425D01*
X001145Y003610D01*
X001083Y003672D01*
X005340Y000898D02*
X005525Y000898D01*
X005587Y000960D01*
X005464Y000898D02*
X005587Y000775D01*
X006525Y002425D02*
X006772Y002425D01*
X006895Y002548D01*
X006772Y002672D01*
X006525Y002672D01*
X006525Y002978D02*
X006586Y003040D01*
X006586Y003162D02*
X006833Y003162D01*
X006586Y003162D02*
X006525Y003223D01*
X006525Y003347D01*
X006586Y003409D01*
X009150Y003925D02*
X009150Y004048D01*
X009150Y003987D02*
X009520Y003987D01*
X009520Y004048D02*
X009520Y003925D01*
X009520Y004171D02*
X009273Y004417D01*
X009211Y004417D01*
X009150Y004356D01*
X009150Y004232D01*
X009211Y004171D01*
X009520Y004171D02*
X009520Y004417D01*
X009458Y004539D02*
X009520Y004601D01*
X009520Y004724D01*
X009458Y004786D01*
X009211Y004786D02*
X009150Y004724D01*
X009150Y004601D01*
X009211Y004539D01*
X009458Y004539D01*
X009520Y005275D02*
X009150Y005275D01*
X009150Y005461D01*
X009211Y005522D01*
X009273Y005522D01*
X009335Y005461D01*
X009335Y005275D01*
X009335Y005461D02*
X009397Y005522D01*
X009458Y005522D01*
X009520Y005461D01*
X009520Y005275D01*
X009458Y005644D02*
X009520Y005706D01*
X009520Y005829D01*
X009458Y005891D01*
X009150Y005891D01*
X009211Y006012D02*
X009150Y006074D01*
X009150Y006197D01*
X009211Y006259D01*
X009335Y006197D02*
X009397Y006259D01*
X009458Y006259D01*
X009520Y006197D01*
X009520Y006074D01*
X009458Y006012D01*
X009335Y006074D02*
X009335Y006197D01*
X009335Y006074D02*
X009273Y006012D01*
X009211Y006012D01*
X009150Y005644D02*
X009458Y005644D01*
D12*
X008535Y007660D02*
X008477Y007662D01*
X008418Y007668D01*
X008361Y007678D01*
X008304Y007691D01*
X008248Y007708D01*
X008193Y007729D01*
X008140Y007754D01*
X008089Y007782D01*
X008040Y007814D01*
X007993Y007848D01*
X007948Y007886D01*
X007906Y007927D01*
X007867Y007970D01*
X007831Y008016D01*
X007797Y008064D01*
X007768Y008114D01*
X007741Y008167D01*
X007718Y008221D01*
X007699Y008276D01*
X007684Y008332D01*
X007672Y008389D01*
X007664Y008447D01*
X007660Y008506D01*
X007660Y008564D01*
X007664Y008623D01*
X007672Y008681D01*
X007684Y008738D01*
X007699Y008794D01*
X007718Y008849D01*
X007741Y008903D01*
X007768Y008956D01*
X007797Y009006D01*
X007831Y009054D01*
X007867Y009100D01*
X007906Y009143D01*
X007948Y009184D01*
X007993Y009222D01*
X008040Y009256D01*
X008089Y009288D01*
X008140Y009316D01*
X008193Y009341D01*
X008248Y009362D01*
X008304Y009379D01*
X008361Y009392D01*
X008418Y009402D01*
X008477Y009408D01*
X008535Y009410D01*
X008593Y009408D01*
X008652Y009402D01*
X008709Y009392D01*
X008766Y009379D01*
X008822Y009362D01*
X008877Y009341D01*
X008930Y009316D01*
X008981Y009288D01*
X009030Y009256D01*
X009077Y009222D01*
X009122Y009184D01*
X009164Y009143D01*
X009203Y009100D01*
X009239Y009054D01*
X009273Y009006D01*
X009302Y008956D01*
X009329Y008903D01*
X009352Y008849D01*
X009371Y008794D01*
X009386Y008738D01*
X009398Y008681D01*
X009406Y008623D01*
X009410Y008564D01*
X009410Y008506D01*
X009406Y008447D01*
X009398Y008389D01*
X009386Y008332D01*
X009371Y008276D01*
X009352Y008221D01*
X009329Y008167D01*
X009302Y008114D01*
X009273Y008064D01*
X009239Y008016D01*
X009203Y007970D01*
X009164Y007927D01*
X009122Y007886D01*
X009077Y007848D01*
X009030Y007814D01*
X008981Y007782D01*
X008930Y007754D01*
X008877Y007729D01*
X008822Y007708D01*
X008766Y007691D01*
X008709Y007678D01*
X008652Y007668D01*
X008593Y007662D01*
X008535Y007660D01*
X008535Y002660D02*
X008477Y002658D01*
X008418Y002652D01*
X008361Y002642D01*
X008304Y002629D01*
X008248Y002612D01*
X008193Y002591D01*
X008140Y002566D01*
X008089Y002538D01*
X008040Y002506D01*
X007993Y002472D01*
X007948Y002434D01*
X007906Y002393D01*
X007867Y002350D01*
X007831Y002304D01*
X007797Y002256D01*
X007768Y002206D01*
X007741Y002153D01*
X007718Y002099D01*
X007699Y002044D01*
X007684Y001988D01*
X007672Y001931D01*
X007664Y001873D01*
X007660Y001814D01*
X007660Y001756D01*
X007664Y001697D01*
X007672Y001639D01*
X007684Y001582D01*
X007699Y001526D01*
X007718Y001471D01*
X007741Y001417D01*
X007768Y001364D01*
X007797Y001314D01*
X007831Y001266D01*
X007867Y001220D01*
X007906Y001177D01*
X007948Y001136D01*
X007993Y001098D01*
X008040Y001064D01*
X008089Y001032D01*
X008140Y001004D01*
X008193Y000979D01*
X008248Y000958D01*
X008304Y000941D01*
X008361Y000928D01*
X008418Y000918D01*
X008477Y000912D01*
X008535Y000910D01*
X008593Y000912D01*
X008652Y000918D01*
X008709Y000928D01*
X008766Y000941D01*
X008822Y000958D01*
X008877Y000979D01*
X008930Y001004D01*
X008981Y001032D01*
X009030Y001064D01*
X009077Y001098D01*
X009122Y001136D01*
X009164Y001177D01*
X009203Y001220D01*
X009239Y001266D01*
X009273Y001314D01*
X009302Y001364D01*
X009329Y001417D01*
X009352Y001471D01*
X009371Y001526D01*
X009386Y001582D01*
X009398Y001639D01*
X009406Y001697D01*
X009410Y001756D01*
X009410Y001814D01*
X009406Y001873D01*
X009398Y001931D01*
X009386Y001988D01*
X009371Y002044D01*
X009352Y002099D01*
X009329Y002153D01*
X009302Y002206D01*
X009273Y002256D01*
X009239Y002304D01*
X009203Y002350D01*
X009164Y002393D01*
X009122Y002434D01*
X009077Y002472D01*
X009030Y002506D01*
X008981Y002538D01*
X008930Y002566D01*
X008877Y002591D01*
X008822Y002612D01*
X008766Y002629D01*
X008709Y002642D01*
X008652Y002652D01*
X008593Y002658D01*
X008535Y002660D01*
X001785Y002660D02*
X001727Y002658D01*
X001668Y002652D01*
X001611Y002642D01*
X001554Y002629D01*
X001498Y002612D01*
X001443Y002591D01*
X001390Y002566D01*
X001339Y002538D01*
X001290Y002506D01*
X001243Y002472D01*
X001198Y002434D01*
X001156Y002393D01*
X001117Y002350D01*
X001081Y002304D01*
X001047Y002256D01*
X001018Y002206D01*
X000991Y002153D01*
X000968Y002099D01*
X000949Y002044D01*
X000934Y001988D01*
X000922Y001931D01*
X000914Y001873D01*
X000910Y001814D01*
X000910Y001756D01*
X000914Y001697D01*
X000922Y001639D01*
X000934Y001582D01*
X000949Y001526D01*
X000968Y001471D01*
X000991Y001417D01*
X001018Y001364D01*
X001047Y001314D01*
X001081Y001266D01*
X001117Y001220D01*
X001156Y001177D01*
X001198Y001136D01*
X001243Y001098D01*
X001290Y001064D01*
X001339Y001032D01*
X001390Y001004D01*
X001443Y000979D01*
X001498Y000958D01*
X001554Y000941D01*
X001611Y000928D01*
X001668Y000918D01*
X001727Y000912D01*
X001785Y000910D01*
X001843Y000912D01*
X001902Y000918D01*
X001959Y000928D01*
X002016Y000941D01*
X002072Y000958D01*
X002127Y000979D01*
X002180Y001004D01*
X002231Y001032D01*
X002280Y001064D01*
X002327Y001098D01*
X002372Y001136D01*
X002414Y001177D01*
X002453Y001220D01*
X002489Y001266D01*
X002523Y001314D01*
X002552Y001364D01*
X002579Y001417D01*
X002602Y001471D01*
X002621Y001526D01*
X002636Y001582D01*
X002648Y001639D01*
X002656Y001697D01*
X002660Y001756D01*
X002660Y001814D01*
X002656Y001873D01*
X002648Y001931D01*
X002636Y001988D01*
X002621Y002044D01*
X002602Y002099D01*
X002579Y002153D01*
X002552Y002206D01*
X002523Y002256D01*
X002489Y002304D01*
X002453Y002350D01*
X002414Y002393D01*
X002372Y002434D01*
X002327Y002472D01*
X002280Y002506D01*
X002231Y002538D01*
X002180Y002566D01*
X002127Y002591D01*
X002072Y002612D01*
X002016Y002629D01*
X001959Y002642D01*
X001902Y002652D01*
X001843Y002658D01*
X001785Y002660D01*
X001785Y007660D02*
X001727Y007662D01*
X001668Y007668D01*
X001611Y007678D01*
X001554Y007691D01*
X001498Y007708D01*
X001443Y007729D01*
X001390Y007754D01*
X001339Y007782D01*
X001290Y007814D01*
X001243Y007848D01*
X001198Y007886D01*
X001156Y007927D01*
X001117Y007970D01*
X001081Y008016D01*
X001047Y008064D01*
X001018Y008114D01*
X000991Y008167D01*
X000968Y008221D01*
X000949Y008276D01*
X000934Y008332D01*
X000922Y008389D01*
X000914Y008447D01*
X000910Y008506D01*
X000910Y008564D01*
X000914Y008623D01*
X000922Y008681D01*
X000934Y008738D01*
X000949Y008794D01*
X000968Y008849D01*
X000991Y008903D01*
X001018Y008956D01*
X001047Y009006D01*
X001081Y009054D01*
X001117Y009100D01*
X001156Y009143D01*
X001198Y009184D01*
X001243Y009222D01*
X001290Y009256D01*
X001339Y009288D01*
X001390Y009316D01*
X001443Y009341D01*
X001498Y009362D01*
X001554Y009379D01*
X001611Y009392D01*
X001668Y009402D01*
X001727Y009408D01*
X001785Y009410D01*
X001843Y009408D01*
X001902Y009402D01*
X001959Y009392D01*
X002016Y009379D01*
X002072Y009362D01*
X002127Y009341D01*
X002180Y009316D01*
X002231Y009288D01*
X002280Y009256D01*
X002327Y009222D01*
X002372Y009184D01*
X002414Y009143D01*
X002453Y009100D01*
X002489Y009054D01*
X002523Y009006D01*
X002552Y008956D01*
X002579Y008903D01*
X002602Y008849D01*
X002621Y008794D01*
X002636Y008738D01*
X002648Y008681D01*
X002656Y008623D01*
X002660Y008564D01*
X002660Y008506D01*
X002656Y008447D01*
X002648Y008389D01*
X002636Y008332D01*
X002621Y008276D01*
X002602Y008221D01*
X002579Y008167D01*
X002552Y008114D01*
X002523Y008064D01*
X002489Y008016D01*
X002453Y007970D01*
X002414Y007927D01*
X002372Y007886D01*
X002327Y007848D01*
X002280Y007814D01*
X002231Y007782D01*
X002180Y007754D01*
X002127Y007729D01*
X002072Y007708D01*
X002016Y007691D01*
X001959Y007678D01*
X001902Y007668D01*
X001843Y007662D01*
X001785Y007660D01*
D13*
X004410Y002285D02*
X004160Y002035D01*
X004160Y001535D01*
X004410Y001285D01*
X004910Y001285D01*
X005160Y001535D01*
X005410Y001285D01*
X005910Y001285D01*
X006160Y001535D01*
X006410Y001285D01*
X006910Y001285D01*
X007160Y001535D01*
X007160Y002035D01*
X006910Y002285D01*
X006410Y002285D01*
X006160Y002035D01*
X005910Y002285D01*
X005410Y002285D01*
X005160Y002035D01*
X004910Y002285D01*
X004410Y002285D01*
X008035Y003410D02*
X008035Y003910D01*
X008285Y004160D01*
X008035Y004410D01*
X008035Y004910D01*
X008285Y005160D01*
X008035Y005410D01*
X008035Y005910D01*
X008285Y006160D01*
X008035Y006410D01*
X008035Y006910D01*
X008285Y007160D01*
X008785Y007160D01*
X009035Y006910D01*
X009035Y006410D01*
X008785Y006160D01*
X009035Y005910D01*
X009035Y005410D01*
X008785Y005160D01*
X009035Y004910D01*
X009035Y004410D01*
X008785Y004160D01*
X009035Y003910D01*
X009035Y003410D01*
X008785Y003160D01*
X008285Y003160D01*
X008035Y003410D01*
D14*
X003902Y002430D02*
X003595Y002430D01*
X003441Y002507D02*
X003364Y002430D01*
X003211Y002430D01*
X003134Y002507D01*
X003134Y002814D01*
X003211Y002890D01*
X003364Y002890D01*
X003441Y002814D01*
X003595Y002737D02*
X003748Y002890D01*
X003748Y002430D01*
X003748Y004555D02*
X003748Y005015D01*
X003595Y004862D01*
X003441Y004939D02*
X003441Y004632D01*
X003364Y004555D01*
X003211Y004555D01*
X003134Y004632D01*
X003134Y004939D01*
X003211Y005015D01*
X003364Y005015D01*
X003441Y004939D01*
X003288Y004708D02*
X003441Y004555D01*
X003595Y004555D02*
X003902Y004555D01*
X003515Y005805D02*
X003055Y005805D01*
X003055Y006035D01*
X003131Y006112D01*
X003285Y006112D01*
X003362Y006035D01*
X003362Y005805D01*
X003362Y005958D02*
X003515Y006112D01*
X003515Y006265D02*
X003515Y006572D01*
X003515Y006419D02*
X003055Y006419D01*
X003208Y006265D01*
D15*
X003610Y007585D02*
X004210Y007585D01*
X004227Y007587D01*
X004244Y007591D01*
X004260Y007598D01*
X004274Y007608D01*
X004287Y007621D01*
X004297Y007635D01*
X004304Y007651D01*
X004308Y007668D01*
X004310Y007685D01*
X004310Y009385D01*
X004308Y009402D01*
X004304Y009419D01*
X004297Y009435D01*
X004287Y009449D01*
X004274Y009462D01*
X004260Y009472D01*
X004244Y009479D01*
X004227Y009483D01*
X004210Y009485D01*
X003610Y009485D01*
X003593Y009483D01*
X003576Y009479D01*
X003560Y009472D01*
X003546Y009462D01*
X003533Y009449D01*
X003523Y009435D01*
X003516Y009419D01*
X003512Y009402D01*
X003510Y009385D01*
X003510Y007685D01*
X003512Y007668D01*
X003516Y007651D01*
X003523Y007635D01*
X003533Y007621D01*
X003546Y007608D01*
X003560Y007598D01*
X003576Y007591D01*
X003593Y007587D01*
X003610Y007585D01*
X004935Y005930D02*
X006635Y005930D01*
X006658Y005928D01*
X006681Y005923D01*
X006703Y005914D01*
X006723Y005901D01*
X006741Y005886D01*
X006756Y005868D01*
X006769Y005848D01*
X006778Y005826D01*
X006783Y005803D01*
X006785Y005780D01*
X006785Y004540D01*
X006783Y004517D01*
X006778Y004494D01*
X006769Y004472D01*
X006756Y004452D01*
X006741Y004434D01*
X006723Y004419D01*
X006703Y004406D01*
X006681Y004397D01*
X006658Y004392D01*
X006635Y004390D01*
X004935Y004390D01*
X004912Y004392D01*
X004889Y004397D01*
X004867Y004406D01*
X004847Y004419D01*
X004829Y004434D01*
X004814Y004452D01*
X004801Y004472D01*
X004792Y004494D01*
X004787Y004517D01*
X004785Y004540D01*
X004785Y004960D01*
X004785Y005360D01*
X004785Y005780D01*
X004787Y005803D01*
X004792Y005826D01*
X004801Y005848D01*
X004814Y005868D01*
X004829Y005886D01*
X004847Y005901D01*
X004867Y005914D01*
X004889Y005923D01*
X004912Y005928D01*
X004935Y005930D01*
X004785Y005360D02*
X004812Y005358D01*
X004839Y005353D01*
X004865Y005343D01*
X004889Y005331D01*
X004911Y005315D01*
X004931Y005297D01*
X004948Y005275D01*
X004963Y005252D01*
X004973Y005227D01*
X004981Y005201D01*
X004985Y005174D01*
X004985Y005146D01*
X004981Y005119D01*
X004973Y005093D01*
X004963Y005068D01*
X004948Y005045D01*
X004931Y005023D01*
X004911Y005005D01*
X004889Y004989D01*
X004865Y004977D01*
X004839Y004967D01*
X004812Y004962D01*
X004785Y004960D01*
X006110Y007585D02*
X006710Y007585D01*
X006727Y007587D01*
X006744Y007591D01*
X006760Y007598D01*
X006774Y007608D01*
X006787Y007621D01*
X006797Y007635D01*
X006804Y007651D01*
X006808Y007668D01*
X006810Y007685D01*
X006810Y009385D01*
X006808Y009402D01*
X006804Y009419D01*
X006797Y009435D01*
X006787Y009449D01*
X006774Y009462D01*
X006760Y009472D01*
X006744Y009479D01*
X006727Y009483D01*
X006710Y009485D01*
X006110Y009485D01*
X006093Y009483D01*
X006076Y009479D01*
X006060Y009472D01*
X006046Y009462D01*
X006033Y009449D01*
X006023Y009435D01*
X006016Y009419D01*
X006012Y009402D01*
X006010Y009385D01*
X006010Y007685D01*
X006012Y007668D01*
X006016Y007651D01*
X006023Y007635D01*
X006033Y007621D01*
X006046Y007608D01*
X006060Y007598D01*
X006076Y007591D01*
X006093Y007587D01*
X006110Y007585D01*
D16*
X006785Y004530D02*
X004785Y004530D01*
M02*
