%
M48
M72
T01C0.0236
T02C0.0400
T03C0.1250
%
T01
X2785Y2785
X4285Y3285
X6160Y3035
X7285Y3160
X7285Y5160
X6035Y5160
X7035Y7160
X4910Y7285
X3910Y7160
X2660Y5160
T02
X1785Y4660
X1785Y5660
X1785Y6660
X1785Y3660
X4660Y1785
X5660Y1785
X6660Y1785
X8535Y3660
X8535Y4660
X8535Y5660
X8535Y6660
T03
X1785Y1785
X1785Y8535
X8535Y8535
X8535Y1785
M30
