G75*
G70*
%OFA0B0*%
%FSLAX24Y24*%
%IPPOS*%
%LPD*%
%AMOC8*
5,1,8,0,0,1.08239X$1,22.5*
%
%ADD10C,0.0000*%
%ADD11C,0.1290*%
%ADD12R,0.0780X0.0780*%
%ADD13C,0.0780*%
%ADD14R,0.0434X0.0473*%
%ADD15R,0.0300X0.0840*%
%ADD16R,0.0670X0.0500*%
%ADD17R,0.0434X0.0591*%
%ADD18R,0.0631X0.0552*%
D10*
X000536Y001785D02*
X000534Y001719D01*
X000536Y001653D01*
X000542Y001587D01*
X000551Y001521D01*
X000564Y001456D01*
X000581Y001391D01*
X000601Y001328D01*
X000625Y001266D01*
X000652Y001206D01*
X000683Y001147D01*
X000717Y001089D01*
X000754Y001034D01*
X000794Y000981D01*
X000837Y000931D01*
X000882Y000882D01*
X000931Y000837D01*
X000981Y000794D01*
X001034Y000754D01*
X001089Y000717D01*
X001147Y000683D01*
X001206Y000652D01*
X001266Y000625D01*
X001328Y000601D01*
X001391Y000581D01*
X001456Y000564D01*
X001521Y000551D01*
X001587Y000542D01*
X001653Y000536D01*
X001719Y000534D01*
X001785Y000536D01*
X001785Y000535D02*
X008535Y000535D01*
X008603Y000537D01*
X008670Y000542D01*
X008737Y000551D01*
X008804Y000564D01*
X008869Y000581D01*
X008934Y000600D01*
X008998Y000624D01*
X009060Y000651D01*
X009121Y000681D01*
X009179Y000714D01*
X009236Y000750D01*
X009291Y000790D01*
X009344Y000832D01*
X009395Y000878D01*
X009442Y000925D01*
X009488Y000976D01*
X009530Y001029D01*
X009570Y001084D01*
X009606Y001141D01*
X009639Y001199D01*
X009669Y001260D01*
X009696Y001322D01*
X009720Y001386D01*
X009739Y001451D01*
X009756Y001516D01*
X009769Y001583D01*
X009778Y001650D01*
X009783Y001717D01*
X009785Y001785D01*
X009785Y008535D01*
X009783Y008603D01*
X009778Y008670D01*
X009769Y008737D01*
X009756Y008804D01*
X009739Y008869D01*
X009720Y008934D01*
X009696Y008998D01*
X009669Y009060D01*
X009639Y009121D01*
X009606Y009179D01*
X009570Y009236D01*
X009530Y009291D01*
X009488Y009344D01*
X009442Y009395D01*
X009395Y009442D01*
X009344Y009488D01*
X009291Y009530D01*
X009236Y009570D01*
X009179Y009606D01*
X009121Y009639D01*
X009060Y009669D01*
X008998Y009696D01*
X008934Y009720D01*
X008869Y009739D01*
X008804Y009756D01*
X008737Y009769D01*
X008670Y009778D01*
X008603Y009783D01*
X008535Y009785D01*
X001785Y009785D01*
X001160Y008535D02*
X001162Y008585D01*
X001168Y008634D01*
X001178Y008683D01*
X001191Y008730D01*
X001209Y008777D01*
X001230Y008822D01*
X001254Y008865D01*
X001282Y008906D01*
X001313Y008945D01*
X001347Y008981D01*
X001384Y009015D01*
X001424Y009045D01*
X001465Y009072D01*
X001509Y009096D01*
X001554Y009116D01*
X001601Y009132D01*
X001649Y009145D01*
X001698Y009154D01*
X001748Y009159D01*
X001797Y009160D01*
X001847Y009157D01*
X001896Y009150D01*
X001945Y009139D01*
X001992Y009125D01*
X002038Y009106D01*
X002083Y009084D01*
X002126Y009059D01*
X002166Y009030D01*
X002204Y008998D01*
X002240Y008964D01*
X002273Y008926D01*
X002302Y008886D01*
X002328Y008844D01*
X002351Y008800D01*
X002370Y008754D01*
X002386Y008707D01*
X002398Y008658D01*
X002406Y008609D01*
X002410Y008560D01*
X002410Y008510D01*
X002406Y008461D01*
X002398Y008412D01*
X002386Y008363D01*
X002370Y008316D01*
X002351Y008270D01*
X002328Y008226D01*
X002302Y008184D01*
X002273Y008144D01*
X002240Y008106D01*
X002204Y008072D01*
X002166Y008040D01*
X002126Y008011D01*
X002083Y007986D01*
X002038Y007964D01*
X001992Y007945D01*
X001945Y007931D01*
X001896Y007920D01*
X001847Y007913D01*
X001797Y007910D01*
X001748Y007911D01*
X001698Y007916D01*
X001649Y007925D01*
X001601Y007938D01*
X001554Y007954D01*
X001509Y007974D01*
X001465Y007998D01*
X001424Y008025D01*
X001384Y008055D01*
X001347Y008089D01*
X001313Y008125D01*
X001282Y008164D01*
X001254Y008205D01*
X001230Y008248D01*
X001209Y008293D01*
X001191Y008340D01*
X001178Y008387D01*
X001168Y008436D01*
X001162Y008485D01*
X001160Y008535D01*
X000535Y008535D02*
X000535Y001785D01*
X001160Y001785D02*
X001162Y001835D01*
X001168Y001884D01*
X001178Y001933D01*
X001191Y001980D01*
X001209Y002027D01*
X001230Y002072D01*
X001254Y002115D01*
X001282Y002156D01*
X001313Y002195D01*
X001347Y002231D01*
X001384Y002265D01*
X001424Y002295D01*
X001465Y002322D01*
X001509Y002346D01*
X001554Y002366D01*
X001601Y002382D01*
X001649Y002395D01*
X001698Y002404D01*
X001748Y002409D01*
X001797Y002410D01*
X001847Y002407D01*
X001896Y002400D01*
X001945Y002389D01*
X001992Y002375D01*
X002038Y002356D01*
X002083Y002334D01*
X002126Y002309D01*
X002166Y002280D01*
X002204Y002248D01*
X002240Y002214D01*
X002273Y002176D01*
X002302Y002136D01*
X002328Y002094D01*
X002351Y002050D01*
X002370Y002004D01*
X002386Y001957D01*
X002398Y001908D01*
X002406Y001859D01*
X002410Y001810D01*
X002410Y001760D01*
X002406Y001711D01*
X002398Y001662D01*
X002386Y001613D01*
X002370Y001566D01*
X002351Y001520D01*
X002328Y001476D01*
X002302Y001434D01*
X002273Y001394D01*
X002240Y001356D01*
X002204Y001322D01*
X002166Y001290D01*
X002126Y001261D01*
X002083Y001236D01*
X002038Y001214D01*
X001992Y001195D01*
X001945Y001181D01*
X001896Y001170D01*
X001847Y001163D01*
X001797Y001160D01*
X001748Y001161D01*
X001698Y001166D01*
X001649Y001175D01*
X001601Y001188D01*
X001554Y001204D01*
X001509Y001224D01*
X001465Y001248D01*
X001424Y001275D01*
X001384Y001305D01*
X001347Y001339D01*
X001313Y001375D01*
X001282Y001414D01*
X001254Y001455D01*
X001230Y001498D01*
X001209Y001543D01*
X001191Y001590D01*
X001178Y001637D01*
X001168Y001686D01*
X001162Y001735D01*
X001160Y001785D01*
X000535Y008535D02*
X000537Y008603D01*
X000542Y008670D01*
X000551Y008737D01*
X000564Y008804D01*
X000581Y008869D01*
X000600Y008934D01*
X000624Y008998D01*
X000651Y009060D01*
X000681Y009121D01*
X000714Y009179D01*
X000750Y009236D01*
X000790Y009291D01*
X000832Y009344D01*
X000878Y009395D01*
X000925Y009442D01*
X000976Y009488D01*
X001029Y009530D01*
X001084Y009570D01*
X001141Y009606D01*
X001199Y009639D01*
X001260Y009669D01*
X001322Y009696D01*
X001386Y009720D01*
X001451Y009739D01*
X001516Y009756D01*
X001583Y009769D01*
X001650Y009778D01*
X001717Y009783D01*
X001785Y009785D01*
X007910Y008535D02*
X007912Y008585D01*
X007918Y008634D01*
X007928Y008683D01*
X007941Y008730D01*
X007959Y008777D01*
X007980Y008822D01*
X008004Y008865D01*
X008032Y008906D01*
X008063Y008945D01*
X008097Y008981D01*
X008134Y009015D01*
X008174Y009045D01*
X008215Y009072D01*
X008259Y009096D01*
X008304Y009116D01*
X008351Y009132D01*
X008399Y009145D01*
X008448Y009154D01*
X008498Y009159D01*
X008547Y009160D01*
X008597Y009157D01*
X008646Y009150D01*
X008695Y009139D01*
X008742Y009125D01*
X008788Y009106D01*
X008833Y009084D01*
X008876Y009059D01*
X008916Y009030D01*
X008954Y008998D01*
X008990Y008964D01*
X009023Y008926D01*
X009052Y008886D01*
X009078Y008844D01*
X009101Y008800D01*
X009120Y008754D01*
X009136Y008707D01*
X009148Y008658D01*
X009156Y008609D01*
X009160Y008560D01*
X009160Y008510D01*
X009156Y008461D01*
X009148Y008412D01*
X009136Y008363D01*
X009120Y008316D01*
X009101Y008270D01*
X009078Y008226D01*
X009052Y008184D01*
X009023Y008144D01*
X008990Y008106D01*
X008954Y008072D01*
X008916Y008040D01*
X008876Y008011D01*
X008833Y007986D01*
X008788Y007964D01*
X008742Y007945D01*
X008695Y007931D01*
X008646Y007920D01*
X008597Y007913D01*
X008547Y007910D01*
X008498Y007911D01*
X008448Y007916D01*
X008399Y007925D01*
X008351Y007938D01*
X008304Y007954D01*
X008259Y007974D01*
X008215Y007998D01*
X008174Y008025D01*
X008134Y008055D01*
X008097Y008089D01*
X008063Y008125D01*
X008032Y008164D01*
X008004Y008205D01*
X007980Y008248D01*
X007959Y008293D01*
X007941Y008340D01*
X007928Y008387D01*
X007918Y008436D01*
X007912Y008485D01*
X007910Y008535D01*
X007910Y001785D02*
X007912Y001835D01*
X007918Y001884D01*
X007928Y001933D01*
X007941Y001980D01*
X007959Y002027D01*
X007980Y002072D01*
X008004Y002115D01*
X008032Y002156D01*
X008063Y002195D01*
X008097Y002231D01*
X008134Y002265D01*
X008174Y002295D01*
X008215Y002322D01*
X008259Y002346D01*
X008304Y002366D01*
X008351Y002382D01*
X008399Y002395D01*
X008448Y002404D01*
X008498Y002409D01*
X008547Y002410D01*
X008597Y002407D01*
X008646Y002400D01*
X008695Y002389D01*
X008742Y002375D01*
X008788Y002356D01*
X008833Y002334D01*
X008876Y002309D01*
X008916Y002280D01*
X008954Y002248D01*
X008990Y002214D01*
X009023Y002176D01*
X009052Y002136D01*
X009078Y002094D01*
X009101Y002050D01*
X009120Y002004D01*
X009136Y001957D01*
X009148Y001908D01*
X009156Y001859D01*
X009160Y001810D01*
X009160Y001760D01*
X009156Y001711D01*
X009148Y001662D01*
X009136Y001613D01*
X009120Y001566D01*
X009101Y001520D01*
X009078Y001476D01*
X009052Y001434D01*
X009023Y001394D01*
X008990Y001356D01*
X008954Y001322D01*
X008916Y001290D01*
X008876Y001261D01*
X008833Y001236D01*
X008788Y001214D01*
X008742Y001195D01*
X008695Y001181D01*
X008646Y001170D01*
X008597Y001163D01*
X008547Y001160D01*
X008498Y001161D01*
X008448Y001166D01*
X008399Y001175D01*
X008351Y001188D01*
X008304Y001204D01*
X008259Y001224D01*
X008215Y001248D01*
X008174Y001275D01*
X008134Y001305D01*
X008097Y001339D01*
X008063Y001375D01*
X008032Y001414D01*
X008004Y001455D01*
X007980Y001498D01*
X007959Y001543D01*
X007941Y001590D01*
X007928Y001637D01*
X007918Y001686D01*
X007912Y001735D01*
X007910Y001785D01*
D11*
X008535Y001785D03*
X008535Y008535D03*
X001785Y008535D03*
X001785Y001785D03*
D12*
X001785Y006660D03*
X008535Y006660D03*
D13*
X008535Y005660D03*
X008535Y004660D03*
X008535Y003660D03*
X006660Y001785D03*
X005660Y001785D03*
X004660Y001785D03*
X001785Y003660D03*
X001785Y004660D03*
X001785Y005660D03*
D14*
X003535Y002120D03*
X003535Y001450D03*
D15*
X005035Y003950D03*
X005535Y003950D03*
X006035Y003950D03*
X006535Y003950D03*
X006535Y006370D03*
X006035Y006370D03*
X005535Y006370D03*
X005035Y006370D03*
D16*
X003910Y007935D03*
X003910Y008535D03*
X003910Y009135D03*
X006410Y009135D03*
X006410Y008535D03*
X006410Y007935D03*
D17*
X003909Y004093D03*
X003161Y004093D03*
X003535Y003227D03*
D18*
X004035Y005661D03*
X004035Y006409D03*
M02*
