G75*
G70*
%OFA0B0*%
%FSLAX24Y24*%
%IPPOS*%
%LPD*%
%AMOC8*
5,1,8,0,0,1.08239X$1,22.5*
%
%ADD10C,0.0000*%
%ADD11R,0.0740X0.0740*%
%ADD12C,0.0740*%
%ADD13R,0.0240X0.0870*%
%ADD14R,0.0433X0.0394*%
%ADD15R,0.0630X0.0460*%
%ADD16C,0.0120*%
%ADD17R,0.0356X0.0356*%
D10*
X000536Y001785D02*
X000534Y001719D01*
X000536Y001653D01*
X000542Y001587D01*
X000551Y001521D01*
X000564Y001456D01*
X000581Y001391D01*
X000601Y001328D01*
X000625Y001266D01*
X000652Y001206D01*
X000683Y001147D01*
X000717Y001089D01*
X000754Y001034D01*
X000794Y000981D01*
X000837Y000931D01*
X000882Y000882D01*
X000931Y000837D01*
X000981Y000794D01*
X001034Y000754D01*
X001089Y000717D01*
X001147Y000683D01*
X001206Y000652D01*
X001266Y000625D01*
X001328Y000601D01*
X001391Y000581D01*
X001456Y000564D01*
X001521Y000551D01*
X001587Y000542D01*
X001653Y000536D01*
X001719Y000534D01*
X001785Y000536D01*
X001785Y000535D02*
X008535Y000535D01*
X008603Y000537D01*
X008670Y000542D01*
X008737Y000551D01*
X008804Y000564D01*
X008869Y000581D01*
X008934Y000600D01*
X008998Y000624D01*
X009060Y000651D01*
X009121Y000681D01*
X009179Y000714D01*
X009236Y000750D01*
X009291Y000790D01*
X009344Y000832D01*
X009395Y000878D01*
X009442Y000925D01*
X009488Y000976D01*
X009530Y001029D01*
X009570Y001084D01*
X009606Y001141D01*
X009639Y001199D01*
X009669Y001260D01*
X009696Y001322D01*
X009720Y001386D01*
X009739Y001451D01*
X009756Y001516D01*
X009769Y001583D01*
X009778Y001650D01*
X009783Y001717D01*
X009785Y001785D01*
X009785Y008535D01*
X009783Y008603D01*
X009778Y008670D01*
X009769Y008737D01*
X009756Y008804D01*
X009739Y008869D01*
X009720Y008934D01*
X009696Y008998D01*
X009669Y009060D01*
X009639Y009121D01*
X009606Y009179D01*
X009570Y009236D01*
X009530Y009291D01*
X009488Y009344D01*
X009442Y009395D01*
X009395Y009442D01*
X009344Y009488D01*
X009291Y009530D01*
X009236Y009570D01*
X009179Y009606D01*
X009121Y009639D01*
X009060Y009669D01*
X008998Y009696D01*
X008934Y009720D01*
X008869Y009739D01*
X008804Y009756D01*
X008737Y009769D01*
X008670Y009778D01*
X008603Y009783D01*
X008535Y009785D01*
X001785Y009785D01*
X001160Y008535D02*
X001162Y008585D01*
X001168Y008634D01*
X001178Y008683D01*
X001191Y008730D01*
X001209Y008777D01*
X001230Y008822D01*
X001254Y008865D01*
X001282Y008906D01*
X001313Y008945D01*
X001347Y008981D01*
X001384Y009015D01*
X001424Y009045D01*
X001465Y009072D01*
X001509Y009096D01*
X001554Y009116D01*
X001601Y009132D01*
X001649Y009145D01*
X001698Y009154D01*
X001748Y009159D01*
X001797Y009160D01*
X001847Y009157D01*
X001896Y009150D01*
X001945Y009139D01*
X001992Y009125D01*
X002038Y009106D01*
X002083Y009084D01*
X002126Y009059D01*
X002166Y009030D01*
X002204Y008998D01*
X002240Y008964D01*
X002273Y008926D01*
X002302Y008886D01*
X002328Y008844D01*
X002351Y008800D01*
X002370Y008754D01*
X002386Y008707D01*
X002398Y008658D01*
X002406Y008609D01*
X002410Y008560D01*
X002410Y008510D01*
X002406Y008461D01*
X002398Y008412D01*
X002386Y008363D01*
X002370Y008316D01*
X002351Y008270D01*
X002328Y008226D01*
X002302Y008184D01*
X002273Y008144D01*
X002240Y008106D01*
X002204Y008072D01*
X002166Y008040D01*
X002126Y008011D01*
X002083Y007986D01*
X002038Y007964D01*
X001992Y007945D01*
X001945Y007931D01*
X001896Y007920D01*
X001847Y007913D01*
X001797Y007910D01*
X001748Y007911D01*
X001698Y007916D01*
X001649Y007925D01*
X001601Y007938D01*
X001554Y007954D01*
X001509Y007974D01*
X001465Y007998D01*
X001424Y008025D01*
X001384Y008055D01*
X001347Y008089D01*
X001313Y008125D01*
X001282Y008164D01*
X001254Y008205D01*
X001230Y008248D01*
X001209Y008293D01*
X001191Y008340D01*
X001178Y008387D01*
X001168Y008436D01*
X001162Y008485D01*
X001160Y008535D01*
X000535Y008535D02*
X000535Y001785D01*
X001160Y001785D02*
X001162Y001835D01*
X001168Y001884D01*
X001178Y001933D01*
X001191Y001980D01*
X001209Y002027D01*
X001230Y002072D01*
X001254Y002115D01*
X001282Y002156D01*
X001313Y002195D01*
X001347Y002231D01*
X001384Y002265D01*
X001424Y002295D01*
X001465Y002322D01*
X001509Y002346D01*
X001554Y002366D01*
X001601Y002382D01*
X001649Y002395D01*
X001698Y002404D01*
X001748Y002409D01*
X001797Y002410D01*
X001847Y002407D01*
X001896Y002400D01*
X001945Y002389D01*
X001992Y002375D01*
X002038Y002356D01*
X002083Y002334D01*
X002126Y002309D01*
X002166Y002280D01*
X002204Y002248D01*
X002240Y002214D01*
X002273Y002176D01*
X002302Y002136D01*
X002328Y002094D01*
X002351Y002050D01*
X002370Y002004D01*
X002386Y001957D01*
X002398Y001908D01*
X002406Y001859D01*
X002410Y001810D01*
X002410Y001760D01*
X002406Y001711D01*
X002398Y001662D01*
X002386Y001613D01*
X002370Y001566D01*
X002351Y001520D01*
X002328Y001476D01*
X002302Y001434D01*
X002273Y001394D01*
X002240Y001356D01*
X002204Y001322D01*
X002166Y001290D01*
X002126Y001261D01*
X002083Y001236D01*
X002038Y001214D01*
X001992Y001195D01*
X001945Y001181D01*
X001896Y001170D01*
X001847Y001163D01*
X001797Y001160D01*
X001748Y001161D01*
X001698Y001166D01*
X001649Y001175D01*
X001601Y001188D01*
X001554Y001204D01*
X001509Y001224D01*
X001465Y001248D01*
X001424Y001275D01*
X001384Y001305D01*
X001347Y001339D01*
X001313Y001375D01*
X001282Y001414D01*
X001254Y001455D01*
X001230Y001498D01*
X001209Y001543D01*
X001191Y001590D01*
X001178Y001637D01*
X001168Y001686D01*
X001162Y001735D01*
X001160Y001785D01*
X000535Y008535D02*
X000537Y008603D01*
X000542Y008670D01*
X000551Y008737D01*
X000564Y008804D01*
X000581Y008869D01*
X000600Y008934D01*
X000624Y008998D01*
X000651Y009060D01*
X000681Y009121D01*
X000714Y009179D01*
X000750Y009236D01*
X000790Y009291D01*
X000832Y009344D01*
X000878Y009395D01*
X000925Y009442D01*
X000976Y009488D01*
X001029Y009530D01*
X001084Y009570D01*
X001141Y009606D01*
X001199Y009639D01*
X001260Y009669D01*
X001322Y009696D01*
X001386Y009720D01*
X001451Y009739D01*
X001516Y009756D01*
X001583Y009769D01*
X001650Y009778D01*
X001717Y009783D01*
X001785Y009785D01*
X007910Y008535D02*
X007912Y008585D01*
X007918Y008634D01*
X007928Y008683D01*
X007941Y008730D01*
X007959Y008777D01*
X007980Y008822D01*
X008004Y008865D01*
X008032Y008906D01*
X008063Y008945D01*
X008097Y008981D01*
X008134Y009015D01*
X008174Y009045D01*
X008215Y009072D01*
X008259Y009096D01*
X008304Y009116D01*
X008351Y009132D01*
X008399Y009145D01*
X008448Y009154D01*
X008498Y009159D01*
X008547Y009160D01*
X008597Y009157D01*
X008646Y009150D01*
X008695Y009139D01*
X008742Y009125D01*
X008788Y009106D01*
X008833Y009084D01*
X008876Y009059D01*
X008916Y009030D01*
X008954Y008998D01*
X008990Y008964D01*
X009023Y008926D01*
X009052Y008886D01*
X009078Y008844D01*
X009101Y008800D01*
X009120Y008754D01*
X009136Y008707D01*
X009148Y008658D01*
X009156Y008609D01*
X009160Y008560D01*
X009160Y008510D01*
X009156Y008461D01*
X009148Y008412D01*
X009136Y008363D01*
X009120Y008316D01*
X009101Y008270D01*
X009078Y008226D01*
X009052Y008184D01*
X009023Y008144D01*
X008990Y008106D01*
X008954Y008072D01*
X008916Y008040D01*
X008876Y008011D01*
X008833Y007986D01*
X008788Y007964D01*
X008742Y007945D01*
X008695Y007931D01*
X008646Y007920D01*
X008597Y007913D01*
X008547Y007910D01*
X008498Y007911D01*
X008448Y007916D01*
X008399Y007925D01*
X008351Y007938D01*
X008304Y007954D01*
X008259Y007974D01*
X008215Y007998D01*
X008174Y008025D01*
X008134Y008055D01*
X008097Y008089D01*
X008063Y008125D01*
X008032Y008164D01*
X008004Y008205D01*
X007980Y008248D01*
X007959Y008293D01*
X007941Y008340D01*
X007928Y008387D01*
X007918Y008436D01*
X007912Y008485D01*
X007910Y008535D01*
X007910Y001785D02*
X007912Y001835D01*
X007918Y001884D01*
X007928Y001933D01*
X007941Y001980D01*
X007959Y002027D01*
X007980Y002072D01*
X008004Y002115D01*
X008032Y002156D01*
X008063Y002195D01*
X008097Y002231D01*
X008134Y002265D01*
X008174Y002295D01*
X008215Y002322D01*
X008259Y002346D01*
X008304Y002366D01*
X008351Y002382D01*
X008399Y002395D01*
X008448Y002404D01*
X008498Y002409D01*
X008547Y002410D01*
X008597Y002407D01*
X008646Y002400D01*
X008695Y002389D01*
X008742Y002375D01*
X008788Y002356D01*
X008833Y002334D01*
X008876Y002309D01*
X008916Y002280D01*
X008954Y002248D01*
X008990Y002214D01*
X009023Y002176D01*
X009052Y002136D01*
X009078Y002094D01*
X009101Y002050D01*
X009120Y002004D01*
X009136Y001957D01*
X009148Y001908D01*
X009156Y001859D01*
X009160Y001810D01*
X009160Y001760D01*
X009156Y001711D01*
X009148Y001662D01*
X009136Y001613D01*
X009120Y001566D01*
X009101Y001520D01*
X009078Y001476D01*
X009052Y001434D01*
X009023Y001394D01*
X008990Y001356D01*
X008954Y001322D01*
X008916Y001290D01*
X008876Y001261D01*
X008833Y001236D01*
X008788Y001214D01*
X008742Y001195D01*
X008695Y001181D01*
X008646Y001170D01*
X008597Y001163D01*
X008547Y001160D01*
X008498Y001161D01*
X008448Y001166D01*
X008399Y001175D01*
X008351Y001188D01*
X008304Y001204D01*
X008259Y001224D01*
X008215Y001248D01*
X008174Y001275D01*
X008134Y001305D01*
X008097Y001339D01*
X008063Y001375D01*
X008032Y001414D01*
X008004Y001455D01*
X007980Y001498D01*
X007959Y001543D01*
X007941Y001590D01*
X007928Y001637D01*
X007918Y001686D01*
X007912Y001735D01*
X007910Y001785D01*
D11*
X008535Y006660D03*
X001785Y006660D03*
D12*
X001785Y005660D03*
X001785Y004660D03*
X001785Y003660D03*
X004660Y001785D03*
X005660Y001785D03*
X006660Y001785D03*
X008535Y003660D03*
X008535Y004660D03*
X008535Y005660D03*
D13*
X005910Y006190D03*
X005410Y006190D03*
X004910Y006190D03*
X004410Y006190D03*
X004410Y004130D03*
X004910Y004130D03*
X005410Y004130D03*
X005910Y004130D03*
D14*
X006825Y006160D03*
X007495Y006160D03*
D15*
X006535Y007935D03*
X006535Y008535D03*
X006535Y009135D03*
X005160Y009135D03*
X005160Y008535D03*
X005160Y007935D03*
X003785Y007935D03*
X003785Y008535D03*
X003785Y009135D03*
D16*
X001051Y001009D02*
X000995Y001009D01*
X000901Y001103D02*
X000762Y001354D01*
X000697Y001633D01*
X000695Y001764D01*
X000695Y001781D01*
X000698Y001843D01*
X000695Y001846D01*
X000695Y008535D01*
X000708Y008706D01*
X000814Y009030D01*
X000930Y009190D01*
X000790Y008947D01*
X000717Y008676D01*
X000717Y008394D01*
X000790Y008123D01*
X000931Y007879D01*
X001129Y007681D01*
X001373Y007540D01*
X001644Y007467D01*
X001926Y007467D01*
X002197Y007540D01*
X002406Y007661D01*
X002210Y007465D01*
X001210Y007465D01*
X001105Y007360D01*
X000980Y007235D01*
X000980Y005710D01*
X001085Y005605D01*
X001105Y005585D01*
X001210Y005480D01*
X001329Y005480D01*
X001335Y005465D01*
X000980Y005110D01*
X000980Y003085D01*
X001085Y002980D01*
X001210Y002855D01*
X002360Y002855D01*
X002465Y002960D01*
X002487Y002982D01*
X002487Y002593D01*
X002441Y002639D01*
X002197Y002780D01*
X001926Y002853D01*
X001644Y002853D01*
X001373Y002780D01*
X001129Y002639D01*
X000931Y002441D01*
X000790Y002197D01*
X000717Y001926D01*
X000717Y001644D01*
X000790Y001373D01*
X000931Y001129D01*
X001129Y000931D01*
X001373Y000790D01*
X001644Y000717D01*
X001926Y000717D01*
X002197Y000790D01*
X002441Y000931D01*
X002639Y001129D01*
X002780Y001373D01*
X002853Y001644D01*
X002853Y001926D01*
X002780Y002197D01*
X002639Y002441D01*
X002593Y002487D01*
X002829Y002487D01*
X002855Y002460D01*
X002960Y002355D01*
X006735Y002355D01*
X007241Y002862D01*
X007513Y002862D01*
X007583Y002932D01*
X007583Y003388D01*
X007513Y003458D01*
X007465Y003458D01*
X007465Y004862D01*
X007513Y004862D01*
X007583Y004932D01*
X007583Y005388D01*
X007513Y005458D01*
X007057Y005458D01*
X006987Y005388D01*
X006987Y005116D01*
X006180Y004310D01*
X006150Y004310D01*
X006150Y004615D01*
X006080Y004685D01*
X005815Y004685D01*
X005991Y004862D01*
X006263Y004862D01*
X006333Y004932D01*
X006333Y005388D01*
X006263Y005458D01*
X005807Y005458D01*
X005737Y005388D01*
X005737Y005340D01*
X002958Y005340D01*
X002958Y005388D01*
X002888Y005458D01*
X002432Y005458D01*
X002362Y005388D01*
X002362Y004932D01*
X002432Y004862D01*
X002888Y004862D01*
X002958Y004932D01*
X002958Y004980D01*
X005600Y004980D01*
X005305Y004685D01*
X005240Y004685D01*
X005180Y004624D01*
X005179Y004627D01*
X005158Y004663D01*
X005128Y004693D01*
X005092Y004714D01*
X005051Y004725D01*
X004910Y004725D01*
X004910Y004130D01*
X004910Y003410D01*
X005160Y003160D01*
X006035Y003160D01*
X006160Y003035D01*
X006585Y002715D02*
X003110Y002715D01*
X003083Y002741D01*
X003083Y003013D01*
X003013Y003083D01*
X002588Y003083D01*
X003455Y003950D01*
X004170Y003950D01*
X004170Y003645D01*
X004230Y003585D01*
X004230Y003583D01*
X004057Y003583D01*
X003987Y003513D01*
X003987Y003057D01*
X004057Y002987D01*
X004513Y002987D01*
X004583Y003057D01*
X004583Y003329D01*
X004590Y003335D01*
X004590Y003585D01*
X004640Y003636D01*
X004641Y003633D01*
X004662Y003597D01*
X004692Y003567D01*
X004728Y003546D01*
X004769Y003535D01*
X004910Y003535D01*
X005051Y003535D01*
X005092Y003546D01*
X005128Y003567D01*
X005158Y003597D01*
X005179Y003633D01*
X005180Y003636D01*
X005240Y003575D01*
X005580Y003575D01*
X005650Y003645D01*
X005650Y004520D01*
X005670Y004540D01*
X005670Y003645D01*
X005740Y003575D01*
X006080Y003575D01*
X006150Y003645D01*
X006150Y003950D01*
X006330Y003950D01*
X007105Y004725D01*
X007105Y003458D01*
X007057Y003458D01*
X006987Y003388D01*
X006987Y003116D01*
X006585Y002715D01*
X006657Y002787D02*
X003083Y002787D01*
X003083Y002905D02*
X006775Y002905D01*
X006894Y003024D02*
X004549Y003024D01*
X004583Y003142D02*
X006987Y003142D01*
X006987Y003261D02*
X004583Y003261D01*
X004590Y003379D02*
X006987Y003379D01*
X007105Y003498D02*
X004590Y003498D01*
X004621Y003616D02*
X004651Y003616D01*
X004910Y003616D02*
X004910Y003616D01*
X004910Y003535D02*
X004910Y004130D01*
X004910Y004130D01*
X004910Y004725D01*
X004769Y004725D01*
X004728Y004714D01*
X004692Y004693D01*
X004662Y004663D01*
X004641Y004627D01*
X004640Y004624D01*
X004580Y004685D01*
X004240Y004685D01*
X004170Y004615D01*
X004170Y004310D01*
X003305Y004310D01*
X002210Y003215D01*
X001991Y003215D01*
X002063Y003245D01*
X002200Y003382D01*
X002275Y003563D01*
X002275Y003757D01*
X002200Y003938D01*
X002063Y004075D01*
X001882Y004150D01*
X001688Y004150D01*
X001507Y004075D01*
X001370Y003938D01*
X001340Y003866D01*
X001340Y004454D01*
X001370Y004382D01*
X001507Y004245D01*
X001688Y004170D01*
X001882Y004170D01*
X002063Y004245D01*
X002200Y004382D01*
X002275Y004563D01*
X002275Y004757D01*
X002200Y004938D01*
X002063Y005075D01*
X001882Y005150D01*
X001688Y005150D01*
X001507Y005075D01*
X001370Y004938D01*
X001340Y004866D01*
X001340Y004960D01*
X001590Y005210D01*
X001688Y005170D01*
X001882Y005170D01*
X002063Y005245D01*
X002200Y005382D01*
X002275Y005563D01*
X002275Y005757D01*
X002200Y005938D01*
X002063Y006075D01*
X001931Y006130D01*
X002176Y006130D01*
X002217Y006141D01*
X002253Y006162D01*
X002283Y006192D01*
X002304Y006228D01*
X002315Y006269D01*
X002315Y006620D01*
X001825Y006620D01*
X001825Y006700D01*
X002315Y006700D01*
X002315Y007051D01*
X002304Y007092D01*
X002296Y007105D01*
X002360Y007105D01*
X003105Y007850D01*
X003105Y006585D01*
X003355Y006335D01*
X003460Y006230D01*
X004170Y006230D01*
X004170Y005705D01*
X004240Y005635D01*
X004580Y005635D01*
X004650Y005705D01*
X004650Y006675D01*
X004580Y006745D01*
X004240Y006745D01*
X004170Y006675D01*
X004170Y006590D01*
X003610Y006590D01*
X003465Y006735D01*
X003465Y007545D01*
X003730Y007545D01*
X003730Y007880D01*
X003840Y007880D01*
X003840Y007990D01*
X004260Y007990D01*
X004260Y008186D01*
X004249Y008227D01*
X004228Y008263D01*
X004220Y008271D01*
X004220Y008355D01*
X004235Y008355D01*
X004340Y008460D01*
X004340Y008610D01*
X004235Y008715D01*
X004220Y008715D01*
X004220Y008815D01*
X004200Y008835D01*
X004220Y008855D01*
X004220Y008955D01*
X004725Y008955D01*
X004725Y008855D01*
X004745Y008835D01*
X004725Y008815D01*
X004725Y008271D01*
X004717Y008263D01*
X004696Y008227D01*
X004685Y008186D01*
X004685Y007990D01*
X005105Y007990D01*
X005105Y007880D01*
X005215Y007880D01*
X005215Y007545D01*
X005480Y007545D01*
X005480Y007360D01*
X004865Y006745D01*
X004740Y006745D01*
X004670Y006675D01*
X004670Y005705D01*
X004740Y005635D01*
X005080Y005635D01*
X005150Y005705D01*
X005150Y006520D01*
X005170Y006540D01*
X005170Y005705D01*
X005240Y005635D01*
X005580Y005635D01*
X005640Y005696D01*
X005641Y005693D01*
X005662Y005657D01*
X005692Y005627D01*
X005728Y005606D01*
X005769Y005595D01*
X005910Y005595D01*
X006051Y005595D01*
X006092Y005606D01*
X006128Y005627D01*
X006158Y005657D01*
X006179Y005693D01*
X006190Y005734D01*
X006190Y006190D01*
X006190Y006646D01*
X006179Y006687D01*
X006158Y006723D01*
X006128Y006753D01*
X006092Y006774D01*
X006051Y006785D01*
X005910Y006785D01*
X005910Y006190D01*
X005940Y006160D01*
X006825Y006160D01*
X006787Y006198D02*
X006787Y006122D01*
X006449Y006122D01*
X006449Y005942D01*
X006460Y005901D01*
X006481Y005865D01*
X006511Y005835D01*
X006547Y005814D01*
X006588Y005803D01*
X006787Y005803D01*
X006787Y006122D01*
X006864Y006122D01*
X006864Y005803D01*
X007063Y005803D01*
X007104Y005814D01*
X007140Y005835D01*
X007170Y005865D01*
X007183Y005888D01*
X007228Y005843D01*
X007722Y005843D01*
X007980Y005585D01*
X008075Y005491D01*
X008120Y005382D01*
X008257Y005245D01*
X008438Y005170D01*
X008632Y005170D01*
X008813Y005245D01*
X008950Y005382D01*
X009025Y005563D01*
X009025Y005757D01*
X008950Y005938D01*
X008813Y006075D01*
X008681Y006130D01*
X008926Y006130D01*
X008967Y006141D01*
X009003Y006162D01*
X009033Y006192D01*
X009054Y006228D01*
X009065Y006269D01*
X009065Y006620D01*
X008575Y006620D01*
X008575Y006700D01*
X008495Y006700D01*
X008495Y007190D01*
X008144Y007190D01*
X008103Y007179D01*
X008067Y007158D01*
X008037Y007128D01*
X008016Y007092D01*
X008005Y007051D01*
X008005Y006700D01*
X008495Y006700D01*
X008495Y006620D01*
X008005Y006620D01*
X008005Y006269D01*
X008016Y006228D01*
X008037Y006192D01*
X008067Y006162D01*
X008103Y006141D01*
X008144Y006130D01*
X008389Y006130D01*
X008257Y006075D01*
X008128Y005946D01*
X007831Y006243D01*
X007831Y006407D01*
X007761Y006477D01*
X007228Y006477D01*
X007183Y006432D01*
X007170Y006455D01*
X007140Y006485D01*
X007104Y006506D01*
X007063Y006517D01*
X006864Y006517D01*
X006864Y006198D01*
X006787Y006198D01*
X006449Y006198D01*
X006449Y006378D01*
X006460Y006419D01*
X006481Y006455D01*
X006511Y006485D01*
X006547Y006506D01*
X006588Y006517D01*
X006787Y006517D01*
X006787Y006198D01*
X006787Y006223D02*
X006864Y006223D01*
X006864Y006105D02*
X006787Y006105D01*
X006787Y005986D02*
X006864Y005986D01*
X006864Y005868D02*
X006787Y005868D01*
X006479Y005868D02*
X006190Y005868D01*
X006190Y005749D02*
X007816Y005749D01*
X007935Y005631D02*
X006132Y005631D01*
X005910Y005631D02*
X005910Y005631D01*
X005910Y005595D02*
X005910Y006190D01*
X006190Y006190D01*
X005910Y006190D01*
X005910Y006190D01*
X005910Y006190D01*
X005910Y006190D01*
X005910Y006785D01*
X005790Y006785D01*
X005985Y006980D01*
X006090Y007085D01*
X006090Y007610D01*
X006092Y007607D01*
X006122Y007577D01*
X006158Y007556D01*
X006199Y007545D01*
X006480Y007545D01*
X006480Y007880D01*
X006590Y007880D01*
X006590Y007990D01*
X007010Y007990D01*
X007010Y008186D01*
X006999Y008227D01*
X006978Y008263D01*
X006970Y008271D01*
X006970Y008815D01*
X006950Y008835D01*
X006970Y008855D01*
X006970Y009415D01*
X006900Y009485D01*
X006170Y009485D01*
X006100Y009415D01*
X006100Y009315D01*
X005595Y009315D01*
X005595Y009415D01*
X005525Y009485D01*
X004795Y009485D01*
X004725Y009415D01*
X004725Y009315D01*
X004220Y009315D01*
X004220Y009415D01*
X004150Y009485D01*
X003420Y009485D01*
X003350Y009415D01*
X003350Y009315D01*
X003185Y009315D01*
X003080Y009210D01*
X003080Y009210D01*
X002960Y009090D01*
X002855Y008985D01*
X002855Y008110D01*
X002659Y007914D01*
X002780Y008123D01*
X002853Y008394D01*
X002853Y008676D01*
X002780Y008947D01*
X002639Y009191D01*
X002441Y009389D01*
X002197Y009530D01*
X001926Y009603D01*
X001644Y009603D01*
X001373Y009530D01*
X001130Y009390D01*
X001290Y009506D01*
X001614Y009612D01*
X001785Y009625D01*
X008535Y009625D01*
X008706Y009612D01*
X009030Y009506D01*
X009190Y009390D01*
X008947Y009530D01*
X008676Y009603D01*
X008394Y009603D01*
X008123Y009530D01*
X007879Y009389D01*
X007681Y009191D01*
X007540Y008947D01*
X007467Y008676D01*
X007467Y008394D01*
X007540Y008123D01*
X007681Y007879D01*
X007879Y007681D01*
X008123Y007540D01*
X008394Y007467D01*
X008676Y007467D01*
X008947Y007540D01*
X009191Y007681D01*
X009389Y007879D01*
X009530Y008123D01*
X009603Y008394D01*
X009603Y008676D01*
X009530Y008947D01*
X009390Y009190D01*
X009506Y009030D01*
X009612Y008706D01*
X009625Y008535D01*
X009625Y001785D01*
X009612Y001614D01*
X009506Y001290D01*
X009390Y001130D01*
X009530Y001373D01*
X009603Y001644D01*
X009603Y001926D01*
X009530Y002197D01*
X009389Y002441D01*
X009191Y002639D01*
X008947Y002780D01*
X008676Y002853D01*
X008394Y002853D01*
X008123Y002780D01*
X007879Y002639D01*
X007681Y002441D01*
X007540Y002197D01*
X007467Y001926D01*
X007467Y001644D01*
X007540Y001373D01*
X007681Y001129D01*
X007879Y000931D01*
X008123Y000790D01*
X008394Y000717D01*
X008676Y000717D01*
X008947Y000790D01*
X009190Y000930D01*
X009030Y000814D01*
X008706Y000708D01*
X008535Y000695D01*
X001846Y000695D01*
X001843Y000698D01*
X001781Y000695D01*
X001764Y000695D01*
X001633Y000697D01*
X001354Y000762D01*
X001103Y000901D01*
X000901Y001103D01*
X000887Y001128D02*
X000932Y001128D01*
X000863Y001246D02*
X000821Y001246D01*
X000795Y001365D02*
X000759Y001365D01*
X000760Y001483D02*
X000732Y001483D01*
X000729Y001602D02*
X000705Y001602D01*
X000696Y001720D02*
X000717Y001720D01*
X000717Y001839D02*
X000698Y001839D01*
X000695Y001957D02*
X000726Y001957D01*
X000695Y002076D02*
X000757Y002076D01*
X000789Y002194D02*
X000695Y002194D01*
X000695Y002313D02*
X000857Y002313D01*
X000925Y002431D02*
X000695Y002431D01*
X000695Y002550D02*
X001039Y002550D01*
X001179Y002668D02*
X000695Y002668D01*
X000695Y002787D02*
X001397Y002787D01*
X001160Y002905D02*
X000695Y002905D01*
X000695Y003024D02*
X001042Y003024D01*
X000980Y003142D02*
X000695Y003142D01*
X000695Y003261D02*
X000980Y003261D01*
X000980Y003379D02*
X000695Y003379D01*
X000695Y003498D02*
X000980Y003498D01*
X000980Y003616D02*
X000695Y003616D01*
X000695Y003735D02*
X000980Y003735D01*
X000980Y003853D02*
X000695Y003853D01*
X000695Y003972D02*
X000980Y003972D01*
X000980Y004090D02*
X000695Y004090D01*
X000695Y004209D02*
X000980Y004209D01*
X000980Y004327D02*
X000695Y004327D01*
X000695Y004446D02*
X000980Y004446D01*
X000980Y004564D02*
X000695Y004564D01*
X000695Y004683D02*
X000980Y004683D01*
X000980Y004801D02*
X000695Y004801D01*
X000695Y004920D02*
X000980Y004920D01*
X000980Y005038D02*
X000695Y005038D01*
X000695Y005157D02*
X001027Y005157D01*
X001145Y005275D02*
X000695Y005275D01*
X000695Y005394D02*
X001264Y005394D01*
X001178Y005512D02*
X000695Y005512D01*
X000695Y005631D02*
X001060Y005631D01*
X001105Y005585D02*
X001105Y005585D01*
X000980Y005749D02*
X000695Y005749D01*
X000695Y005868D02*
X000980Y005868D01*
X000980Y005986D02*
X000695Y005986D01*
X000695Y006105D02*
X000980Y006105D01*
X000980Y006223D02*
X000695Y006223D01*
X000695Y006342D02*
X000980Y006342D01*
X000980Y006460D02*
X000695Y006460D01*
X000695Y006579D02*
X000980Y006579D01*
X000980Y006697D02*
X000695Y006697D01*
X000695Y006816D02*
X000980Y006816D01*
X000980Y006934D02*
X000695Y006934D01*
X000695Y007053D02*
X000980Y007053D01*
X000980Y007171D02*
X000695Y007171D01*
X000695Y007290D02*
X001035Y007290D01*
X001153Y007408D02*
X000695Y007408D01*
X000695Y007527D02*
X001423Y007527D01*
X001191Y007645D02*
X000695Y007645D01*
X000695Y007764D02*
X001046Y007764D01*
X000929Y007882D02*
X000695Y007882D01*
X000695Y008001D02*
X000861Y008001D01*
X000792Y008119D02*
X000695Y008119D01*
X000695Y008238D02*
X000759Y008238D01*
X000728Y008356D02*
X000695Y008356D01*
X000695Y008475D02*
X000717Y008475D01*
X000717Y008593D02*
X000700Y008593D01*
X000710Y008712D02*
X000727Y008712D01*
X000749Y008830D02*
X000759Y008830D01*
X000787Y008949D02*
X000791Y008949D01*
X000841Y009067D02*
X000859Y009067D01*
X000927Y009186D02*
X000928Y009186D01*
X001175Y009423D02*
X001187Y009423D01*
X001397Y009541D02*
X001414Y009541D01*
X002156Y009541D02*
X008164Y009541D01*
X007937Y009423D02*
X006962Y009423D01*
X006970Y009304D02*
X007794Y009304D01*
X007678Y009186D02*
X006970Y009186D01*
X006970Y009067D02*
X007609Y009067D01*
X007541Y008949D02*
X006970Y008949D01*
X006955Y008830D02*
X007509Y008830D01*
X007477Y008712D02*
X006970Y008712D01*
X006970Y008593D02*
X007467Y008593D01*
X007467Y008475D02*
X006970Y008475D01*
X006970Y008356D02*
X007478Y008356D01*
X007509Y008238D02*
X006993Y008238D01*
X007010Y008119D02*
X007542Y008119D01*
X007611Y008001D02*
X007010Y008001D01*
X007010Y007880D02*
X006590Y007880D01*
X006590Y007545D01*
X006871Y007545D01*
X006912Y007556D01*
X006948Y007577D01*
X006978Y007607D01*
X006999Y007643D01*
X007010Y007684D01*
X007010Y007880D01*
X007010Y007764D02*
X007796Y007764D01*
X007679Y007882D02*
X006590Y007882D01*
X006535Y007935D02*
X006660Y007535D01*
X007035Y007160D01*
X007000Y007645D02*
X007941Y007645D01*
X008173Y007527D02*
X006090Y007527D01*
X006090Y007408D02*
X009625Y007408D01*
X009625Y007290D02*
X006090Y007290D01*
X006090Y007171D02*
X008089Y007171D01*
X008005Y007053D02*
X006057Y007053D01*
X005939Y006934D02*
X008005Y006934D01*
X008005Y006816D02*
X005820Y006816D01*
X005910Y006697D02*
X005910Y006697D01*
X005910Y006579D02*
X005910Y006579D01*
X005910Y006460D02*
X005910Y006460D01*
X005910Y006342D02*
X005910Y006342D01*
X005910Y006223D02*
X005910Y006223D01*
X005910Y006190D02*
X005910Y005595D01*
X005910Y005749D02*
X005910Y005749D01*
X005910Y005868D02*
X005910Y005868D01*
X005910Y005986D02*
X005910Y005986D01*
X005910Y006105D02*
X005910Y006105D01*
X006190Y006105D02*
X006449Y006105D01*
X006449Y006223D02*
X006190Y006223D01*
X006190Y006342D02*
X006449Y006342D01*
X006486Y006460D02*
X006190Y006460D01*
X006190Y006579D02*
X008005Y006579D01*
X008005Y006460D02*
X007778Y006460D01*
X007831Y006342D02*
X008005Y006342D01*
X008019Y006223D02*
X007852Y006223D01*
X007970Y006105D02*
X008328Y006105D01*
X008168Y005986D02*
X008089Y005986D01*
X008160Y005660D02*
X008535Y005660D01*
X008160Y005660D02*
X007660Y006160D01*
X007495Y006160D01*
X007535Y006200D01*
X007212Y006460D02*
X007165Y006460D01*
X006864Y006460D02*
X006787Y006460D01*
X006787Y006342D02*
X006864Y006342D01*
X006449Y005986D02*
X006190Y005986D01*
X005688Y005631D02*
X002275Y005631D01*
X002275Y005749D02*
X004170Y005749D01*
X004170Y005868D02*
X002229Y005868D01*
X002152Y005986D02*
X004170Y005986D01*
X004170Y006105D02*
X001992Y006105D01*
X002301Y006223D02*
X004170Y006223D01*
X004410Y006190D02*
X004410Y006410D01*
X003535Y006410D01*
X003285Y006660D01*
X003285Y008410D01*
X003410Y008535D01*
X003785Y008535D01*
X004160Y008535D01*
X004340Y008593D02*
X004725Y008593D01*
X004725Y008475D02*
X004340Y008475D01*
X004236Y008356D02*
X004725Y008356D01*
X004702Y008238D02*
X004243Y008238D01*
X004260Y008119D02*
X004685Y008119D01*
X004685Y008001D02*
X004260Y008001D01*
X004260Y007880D02*
X003840Y007880D01*
X003840Y007545D01*
X004121Y007545D01*
X004162Y007556D01*
X004198Y007577D01*
X004228Y007607D01*
X004249Y007643D01*
X004260Y007684D01*
X004260Y007880D01*
X004260Y007764D02*
X004685Y007764D01*
X004685Y007684D02*
X004696Y007643D01*
X004717Y007607D01*
X004747Y007577D01*
X004783Y007556D01*
X004824Y007545D01*
X005105Y007545D01*
X005105Y007880D01*
X004685Y007880D01*
X004685Y007684D01*
X004695Y007645D02*
X004250Y007645D01*
X004098Y007348D02*
X003910Y007160D01*
X004098Y007348D02*
X003785Y007660D01*
X003785Y007935D01*
X003840Y007882D02*
X005105Y007882D01*
X005160Y007935D02*
X005160Y007535D01*
X004910Y007285D01*
X004160Y007285D01*
X004098Y007348D01*
X003840Y007645D02*
X003730Y007645D01*
X003730Y007764D02*
X003840Y007764D01*
X003465Y007527D02*
X005480Y007527D01*
X005480Y007408D02*
X003465Y007408D01*
X003465Y007290D02*
X005410Y007290D01*
X005291Y007171D02*
X003465Y007171D01*
X003465Y007053D02*
X005173Y007053D01*
X005054Y006934D02*
X003465Y006934D01*
X003465Y006816D02*
X004936Y006816D01*
X004692Y006697D02*
X004628Y006697D01*
X004650Y006579D02*
X004670Y006579D01*
X004670Y006460D02*
X004650Y006460D01*
X004650Y006342D02*
X004670Y006342D01*
X004670Y006223D02*
X004650Y006223D01*
X004650Y006105D02*
X004670Y006105D01*
X004670Y005986D02*
X004650Y005986D01*
X004650Y005868D02*
X004670Y005868D01*
X004670Y005749D02*
X004650Y005749D01*
X005150Y005749D02*
X005170Y005749D01*
X005170Y005868D02*
X005150Y005868D01*
X005150Y005986D02*
X005170Y005986D01*
X005170Y006105D02*
X005150Y006105D01*
X005150Y006223D02*
X005170Y006223D01*
X005170Y006342D02*
X005150Y006342D01*
X005150Y006460D02*
X005170Y006460D01*
X005410Y006660D02*
X005910Y007160D01*
X005910Y008285D01*
X006285Y008660D01*
X006535Y008660D01*
X006535Y008535D01*
X006535Y009135D02*
X005185Y009135D01*
X005160Y009135D01*
X003785Y009135D01*
X003260Y009135D01*
X003035Y008910D01*
X003035Y008035D01*
X002285Y007285D01*
X001285Y007285D01*
X001160Y007160D01*
X001160Y005785D01*
X001285Y005660D01*
X001785Y005660D01*
X001160Y005035D01*
X001160Y003160D01*
X001285Y003035D01*
X002285Y003035D01*
X003380Y004130D01*
X004410Y004130D01*
X004410Y003410D01*
X004285Y003285D01*
X003987Y003261D02*
X002765Y003261D01*
X002884Y003379D02*
X003987Y003379D01*
X003987Y003498D02*
X003002Y003498D01*
X003121Y003616D02*
X004199Y003616D01*
X004170Y003735D02*
X003239Y003735D01*
X003358Y003853D02*
X004170Y003853D01*
X004170Y004327D02*
X002145Y004327D01*
X001975Y004209D02*
X003204Y004209D01*
X003085Y004090D02*
X002027Y004090D01*
X002166Y003972D02*
X002967Y003972D01*
X002848Y003853D02*
X002235Y003853D01*
X002275Y003735D02*
X002730Y003735D01*
X002611Y003616D02*
X002275Y003616D01*
X002248Y003498D02*
X002493Y003498D01*
X002374Y003379D02*
X002197Y003379D01*
X002256Y003261D02*
X002078Y003261D01*
X002410Y002905D02*
X002487Y002905D01*
X002487Y002787D02*
X002173Y002787D01*
X002391Y002668D02*
X002487Y002668D01*
X002645Y002431D02*
X002884Y002431D01*
X002713Y002313D02*
X004603Y002313D01*
X004618Y002315D02*
X004536Y002302D01*
X004457Y002276D01*
X004382Y002238D01*
X004315Y002189D01*
X004256Y002130D01*
X004207Y002063D01*
X004169Y001988D01*
X004143Y001909D01*
X004130Y001827D01*
X004130Y001825D01*
X004620Y001825D01*
X004620Y002315D01*
X004618Y002315D01*
X004620Y002313D02*
X004700Y002313D01*
X004700Y002315D02*
X004700Y001825D01*
X004620Y001825D01*
X004620Y001745D01*
X004130Y001745D01*
X004130Y001743D01*
X004143Y001661D01*
X004169Y001582D01*
X004207Y001507D01*
X004256Y001440D01*
X004315Y001381D01*
X004382Y001332D01*
X004457Y001294D01*
X004536Y001268D01*
X004618Y001255D01*
X004620Y001255D01*
X004620Y001745D01*
X004700Y001745D01*
X004700Y001255D01*
X004702Y001255D01*
X004784Y001268D01*
X004863Y001294D01*
X004938Y001332D01*
X005005Y001381D01*
X005064Y001440D01*
X005113Y001507D01*
X005151Y001582D01*
X005177Y001661D01*
X005178Y001668D01*
X005245Y001507D01*
X005382Y001370D01*
X005563Y001295D01*
X005757Y001295D01*
X005938Y001370D01*
X006075Y001507D01*
X006150Y001688D01*
X006150Y001882D01*
X006075Y002063D01*
X005938Y002200D01*
X005757Y002275D01*
X005563Y002275D01*
X005382Y002200D01*
X005245Y002063D01*
X005178Y001902D01*
X005177Y001909D01*
X005151Y001988D01*
X005113Y002063D01*
X005064Y002130D01*
X005005Y002189D01*
X004938Y002238D01*
X004863Y002276D01*
X004784Y002302D01*
X004702Y002315D01*
X004700Y002315D01*
X004717Y002313D02*
X007607Y002313D01*
X007675Y002431D02*
X006811Y002431D01*
X006757Y002275D02*
X006563Y002275D01*
X006382Y002200D01*
X006245Y002063D01*
X006170Y001882D01*
X006170Y001688D01*
X006245Y001507D01*
X006382Y001370D01*
X006563Y001295D01*
X006757Y001295D01*
X006938Y001370D01*
X007075Y001507D01*
X007150Y001688D01*
X007150Y001882D01*
X007075Y002063D01*
X006938Y002200D01*
X006757Y002275D01*
X006944Y002194D02*
X007539Y002194D01*
X007507Y002076D02*
X007062Y002076D01*
X007119Y001957D02*
X007476Y001957D01*
X007467Y001839D02*
X007150Y001839D01*
X007150Y001720D02*
X007467Y001720D01*
X007479Y001602D02*
X007114Y001602D01*
X007051Y001483D02*
X007510Y001483D01*
X007545Y001365D02*
X006925Y001365D01*
X006395Y001365D02*
X005925Y001365D01*
X006051Y001483D02*
X006269Y001483D01*
X006206Y001602D02*
X006114Y001602D01*
X006150Y001720D02*
X006170Y001720D01*
X006170Y001839D02*
X006150Y001839D01*
X006119Y001957D02*
X006201Y001957D01*
X006258Y002076D02*
X006062Y002076D01*
X005944Y002194D02*
X006376Y002194D01*
X006660Y002535D02*
X007285Y003160D01*
X007285Y005160D01*
X006255Y004130D01*
X005910Y004130D01*
X006150Y004327D02*
X006197Y004327D01*
X006150Y004446D02*
X006316Y004446D01*
X006434Y004564D02*
X006150Y004564D01*
X006082Y004683D02*
X006553Y004683D01*
X006671Y004801D02*
X005931Y004801D01*
X005670Y004446D02*
X005650Y004446D01*
X005650Y004327D02*
X005670Y004327D01*
X005670Y004209D02*
X005650Y004209D01*
X005650Y004090D02*
X005670Y004090D01*
X005670Y003972D02*
X005650Y003972D01*
X005650Y003853D02*
X005670Y003853D01*
X005670Y003735D02*
X005650Y003735D01*
X005621Y003616D02*
X005699Y003616D01*
X006121Y003616D02*
X007105Y003616D01*
X007105Y003735D02*
X006150Y003735D01*
X006150Y003853D02*
X007105Y003853D01*
X007105Y003972D02*
X006351Y003972D01*
X006470Y004090D02*
X007105Y004090D01*
X007105Y004209D02*
X006588Y004209D01*
X006707Y004327D02*
X007105Y004327D01*
X007105Y004446D02*
X006825Y004446D01*
X006944Y004564D02*
X007105Y004564D01*
X007105Y004683D02*
X007062Y004683D01*
X006790Y004920D02*
X006320Y004920D01*
X006333Y005038D02*
X006908Y005038D01*
X006987Y005157D02*
X006333Y005157D01*
X006333Y005275D02*
X006987Y005275D01*
X006993Y005394D02*
X006327Y005394D01*
X006035Y005160D02*
X005410Y004535D01*
X005410Y004130D01*
X004910Y004130D02*
X004910Y004130D01*
X004910Y003535D01*
X004910Y003735D02*
X004910Y003735D01*
X004910Y003853D02*
X004910Y003853D01*
X004910Y003972D02*
X004910Y003972D01*
X004910Y004090D02*
X004910Y004090D01*
X004910Y004209D02*
X004910Y004209D01*
X004910Y004327D02*
X004910Y004327D01*
X004910Y004446D02*
X004910Y004446D01*
X004910Y004564D02*
X004910Y004564D01*
X004910Y004683D02*
X004910Y004683D01*
X005139Y004683D02*
X005238Y004683D01*
X005421Y004801D02*
X002257Y004801D01*
X002275Y004683D02*
X004238Y004683D01*
X004170Y004564D02*
X002275Y004564D01*
X002227Y004446D02*
X004170Y004446D01*
X004582Y004683D02*
X004681Y004683D01*
X005540Y004920D02*
X002945Y004920D01*
X002660Y005160D02*
X006035Y005160D01*
X005743Y005394D02*
X002952Y005394D01*
X002375Y004920D02*
X002208Y004920D01*
X002100Y005038D02*
X002362Y005038D01*
X002362Y005157D02*
X001536Y005157D01*
X001470Y005038D02*
X001418Y005038D01*
X001362Y004920D02*
X001340Y004920D01*
X001340Y004446D02*
X001343Y004446D01*
X001340Y004327D02*
X001425Y004327D01*
X001340Y004209D02*
X001595Y004209D01*
X001543Y004090D02*
X001340Y004090D01*
X001340Y003972D02*
X001404Y003972D01*
X002647Y003142D02*
X003987Y003142D01*
X004021Y003024D02*
X003072Y003024D01*
X002785Y002785D02*
X003035Y002535D01*
X006660Y002535D01*
X006929Y002550D02*
X007789Y002550D01*
X007929Y002668D02*
X007048Y002668D01*
X007166Y002787D02*
X008147Y002787D01*
X008257Y003245D02*
X008438Y003170D01*
X008632Y003170D01*
X008813Y003245D01*
X008950Y003382D01*
X009025Y003563D01*
X009025Y003757D01*
X008950Y003938D01*
X008813Y004075D01*
X008632Y004150D01*
X008438Y004150D01*
X008257Y004075D01*
X008120Y003938D01*
X008045Y003757D01*
X008045Y003563D01*
X008120Y003382D01*
X008257Y003245D01*
X008242Y003261D02*
X007583Y003261D01*
X007583Y003379D02*
X008123Y003379D01*
X008072Y003498D02*
X007465Y003498D01*
X007465Y003616D02*
X008045Y003616D01*
X008045Y003735D02*
X007465Y003735D01*
X007465Y003853D02*
X008085Y003853D01*
X008154Y003972D02*
X007465Y003972D01*
X007465Y004090D02*
X008293Y004090D01*
X008345Y004209D02*
X007465Y004209D01*
X007465Y004327D02*
X008175Y004327D01*
X008120Y004382D02*
X008257Y004245D01*
X008438Y004170D01*
X008632Y004170D01*
X008813Y004245D01*
X008950Y004382D01*
X009025Y004563D01*
X009025Y004757D01*
X008950Y004938D01*
X008813Y005075D01*
X008632Y005150D01*
X008438Y005150D01*
X008257Y005075D01*
X008120Y004938D01*
X008045Y004757D01*
X008045Y004563D01*
X008120Y004382D01*
X008093Y004446D02*
X007465Y004446D01*
X007465Y004564D02*
X008045Y004564D01*
X008045Y004683D02*
X007465Y004683D01*
X007465Y004801D02*
X008063Y004801D01*
X008112Y004920D02*
X007570Y004920D01*
X007583Y005038D02*
X008220Y005038D01*
X008227Y005275D02*
X007583Y005275D01*
X007577Y005394D02*
X008115Y005394D01*
X008053Y005512D02*
X002254Y005512D01*
X002205Y005394D02*
X002368Y005394D01*
X002362Y005275D02*
X002093Y005275D01*
X002315Y006342D02*
X003349Y006342D01*
X003230Y006460D02*
X002315Y006460D01*
X002315Y006579D02*
X003112Y006579D01*
X003105Y006697D02*
X001825Y006697D01*
X002315Y006816D02*
X003105Y006816D01*
X003105Y006934D02*
X002315Y006934D01*
X002315Y007053D02*
X003105Y007053D01*
X003105Y007171D02*
X002426Y007171D01*
X002544Y007290D02*
X003105Y007290D01*
X003105Y007408D02*
X002663Y007408D01*
X002781Y007527D02*
X003105Y007527D01*
X003105Y007645D02*
X002900Y007645D01*
X003018Y007764D02*
X003105Y007764D01*
X002855Y008119D02*
X002778Y008119D01*
X002746Y008001D02*
X002709Y008001D01*
X002811Y008238D02*
X002855Y008238D01*
X002842Y008356D02*
X002855Y008356D01*
X002853Y008475D02*
X002855Y008475D01*
X002853Y008593D02*
X002855Y008593D01*
X002843Y008712D02*
X002855Y008712D01*
X002855Y008830D02*
X002811Y008830D01*
X002779Y008949D02*
X002855Y008949D01*
X002937Y009067D02*
X002711Y009067D01*
X002642Y009186D02*
X003056Y009186D01*
X003174Y009304D02*
X002526Y009304D01*
X002383Y009423D02*
X003358Y009423D01*
X004212Y009423D02*
X004733Y009423D01*
X005060Y009135D02*
X005160Y009135D01*
X005185Y009135D02*
X005160Y009160D01*
X005587Y009423D02*
X006108Y009423D01*
X006535Y009135D02*
X006660Y009160D01*
X005660Y008410D02*
X005660Y007285D01*
X004910Y006535D01*
X004910Y006190D01*
X005410Y006190D02*
X005410Y006660D01*
X006173Y006697D02*
X008495Y006697D01*
X008575Y006697D02*
X009625Y006697D01*
X009625Y006579D02*
X009065Y006579D01*
X009065Y006460D02*
X009625Y006460D01*
X009625Y006342D02*
X009065Y006342D01*
X009051Y006223D02*
X009625Y006223D01*
X009625Y006105D02*
X008742Y006105D01*
X008902Y005986D02*
X009625Y005986D01*
X009625Y005868D02*
X008979Y005868D01*
X009025Y005749D02*
X009625Y005749D01*
X009625Y005631D02*
X009025Y005631D01*
X009004Y005512D02*
X009625Y005512D01*
X009625Y005394D02*
X008955Y005394D01*
X008843Y005275D02*
X009625Y005275D01*
X009625Y005157D02*
X007583Y005157D01*
X007204Y005868D02*
X007171Y005868D01*
X008495Y006816D02*
X008575Y006816D01*
X008575Y006934D02*
X008495Y006934D01*
X008495Y007053D02*
X008575Y007053D01*
X008575Y007171D02*
X008495Y007171D01*
X008575Y007190D02*
X008575Y006700D01*
X009065Y006700D01*
X009065Y007051D01*
X009054Y007092D01*
X009033Y007128D01*
X009003Y007158D01*
X008967Y007179D01*
X008926Y007190D01*
X008575Y007190D01*
X008897Y007527D02*
X009625Y007527D01*
X009625Y007645D02*
X009129Y007645D01*
X009274Y007764D02*
X009625Y007764D01*
X009625Y007882D02*
X009391Y007882D01*
X009459Y008001D02*
X009625Y008001D01*
X009625Y008119D02*
X009528Y008119D01*
X009561Y008238D02*
X009625Y008238D01*
X009625Y008356D02*
X009592Y008356D01*
X009603Y008475D02*
X009625Y008475D01*
X009620Y008593D02*
X009603Y008593D01*
X009593Y008712D02*
X009610Y008712D01*
X009571Y008830D02*
X009561Y008830D01*
X009533Y008949D02*
X009529Y008949D01*
X009479Y009067D02*
X009461Y009067D01*
X009392Y009186D02*
X009393Y009186D01*
X009145Y009423D02*
X009133Y009423D01*
X008923Y009541D02*
X008906Y009541D01*
X008981Y007171D02*
X009625Y007171D01*
X009625Y007053D02*
X009065Y007053D01*
X009065Y006934D02*
X009625Y006934D01*
X009625Y006816D02*
X009065Y006816D01*
X008850Y005038D02*
X009625Y005038D01*
X009625Y004920D02*
X008958Y004920D01*
X009007Y004801D02*
X009625Y004801D01*
X009625Y004683D02*
X009025Y004683D01*
X009025Y004564D02*
X009625Y004564D01*
X009625Y004446D02*
X008977Y004446D01*
X008895Y004327D02*
X009625Y004327D01*
X009625Y004209D02*
X008725Y004209D01*
X008777Y004090D02*
X009625Y004090D01*
X009625Y003972D02*
X008916Y003972D01*
X008985Y003853D02*
X009625Y003853D01*
X009625Y003735D02*
X009025Y003735D01*
X009025Y003616D02*
X009625Y003616D01*
X009625Y003498D02*
X008998Y003498D01*
X008947Y003379D02*
X009625Y003379D01*
X009625Y003261D02*
X008828Y003261D01*
X008923Y002787D02*
X009625Y002787D01*
X009625Y002905D02*
X007556Y002905D01*
X007583Y003024D02*
X009625Y003024D01*
X009625Y003142D02*
X007583Y003142D01*
X009141Y002668D02*
X009625Y002668D01*
X009625Y002550D02*
X009281Y002550D01*
X009395Y002431D02*
X009625Y002431D01*
X009625Y002313D02*
X009463Y002313D01*
X009531Y002194D02*
X009625Y002194D01*
X009625Y002076D02*
X009563Y002076D01*
X009594Y001957D02*
X009625Y001957D01*
X009625Y001839D02*
X009603Y001839D01*
X009603Y001720D02*
X009620Y001720D01*
X009607Y001602D02*
X009591Y001602D01*
X009569Y001483D02*
X009560Y001483D01*
X009530Y001365D02*
X009525Y001365D01*
X009474Y001246D02*
X009457Y001246D01*
X009135Y000891D02*
X009121Y000891D01*
X008901Y000772D02*
X008880Y000772D01*
X008190Y000772D02*
X002130Y000772D01*
X002371Y000891D02*
X007949Y000891D01*
X007801Y001009D02*
X002519Y001009D01*
X002638Y001128D02*
X007682Y001128D01*
X007613Y001246D02*
X002707Y001246D01*
X002775Y001365D02*
X004337Y001365D01*
X004224Y001483D02*
X002810Y001483D01*
X002841Y001602D02*
X004162Y001602D01*
X004134Y001720D02*
X002853Y001720D01*
X002853Y001839D02*
X004132Y001839D01*
X004159Y001957D02*
X002844Y001957D01*
X002813Y002076D02*
X004216Y002076D01*
X004321Y002194D02*
X002781Y002194D01*
X001440Y000772D02*
X001335Y000772D01*
X001354Y000762D02*
X001354Y000762D01*
X001199Y000891D02*
X001121Y000891D01*
X004620Y001365D02*
X004700Y001365D01*
X004700Y001483D02*
X004620Y001483D01*
X004620Y001602D02*
X004700Y001602D01*
X004700Y001720D02*
X004620Y001720D01*
X004620Y001839D02*
X004700Y001839D01*
X004700Y001957D02*
X004620Y001957D01*
X004620Y002076D02*
X004700Y002076D01*
X004700Y002194D02*
X004620Y002194D01*
X004999Y002194D02*
X005376Y002194D01*
X005258Y002076D02*
X005104Y002076D01*
X005161Y001957D02*
X005201Y001957D01*
X005206Y001602D02*
X005158Y001602D01*
X005096Y001483D02*
X005269Y001483D01*
X005395Y001365D02*
X004983Y001365D01*
X005169Y003616D02*
X005199Y003616D01*
X004192Y006697D02*
X003503Y006697D01*
X002390Y007645D02*
X002379Y007645D01*
X002272Y007527D02*
X002147Y007527D01*
X004205Y008830D02*
X004740Y008830D01*
X004725Y008712D02*
X004238Y008712D01*
X004220Y008949D02*
X004725Y008949D01*
X005160Y008535D02*
X005535Y008535D01*
X005660Y008410D01*
X005215Y007764D02*
X005105Y007764D01*
X005105Y007645D02*
X005215Y007645D01*
X006480Y007645D02*
X006590Y007645D01*
X006590Y007764D02*
X006480Y007764D01*
D17*
X007035Y007160D03*
X007285Y005160D03*
X006035Y005160D03*
X004285Y003285D03*
X002785Y002785D03*
X002660Y005160D03*
X003910Y007160D03*
X004910Y007285D03*
X007285Y003160D03*
X006160Y003035D03*
M02*
